<?xml version="1.0" encoding="UTF-8" standalone="no"?>
<!DOCTYPE svg PUBLIC "-//W3C//DTD SVG 1.1//EN" "http://www.w3.org/Graphics/SVG/1.1/DTD/svg11.dtd">
<svg width="100%" height="100%" viewBox="0 0 3451 1354" version="1.1" xmlns="http://www.w3.org/2000/svg" xmlns:xlink="http://www.w3.org/1999/xlink" xml:space="preserve" xmlns:serif="http://www.serif.com/" style="fill-rule:evenodd;clip-rule:evenodd;stroke-linejoin:round;stroke-miterlimit:2;">
    <g transform="matrix(1,0,0,1,-5372.11,-5293.52)">
        <g id="Artboard-final_wht-yellow" transform="matrix(5.26565,0,0,1.77792,-956.066,5275.88)">
            <rect x="1201.78" y="9.919" width="655.36" height="761.53" style="fill:none;"/>
            <g transform="matrix(0.14439,0,0,0.427639,1239.08,125.96)">
                <path d="M618.841,333.105C755.629,333.105 873.819,413.37 928.839,529.332C932.159,536.329 657.567,412.046 657.567,412.046C657.567,412.046 294.207,787.905 292.871,784.331C280.875,752.23 275.926,706.67 275.926,676.02C275.926,486.76 429.581,333.105 618.841,333.105Z" style="fill:rgb(255,200,87);"/>
            </g>
            <g id="Rays-2" serif:id="Rays 2" transform="matrix(0.300166,-0.144672,0.0420376,0.765056,839.33,262.621)">
                <g transform="matrix(-1.08584e-16,-0.551707,0.474789,1.30301e-16,1254.14,832.325)">
                    <path d="M611.432,-72.894C616.959,-21.188 652.118,86.124 651.788,154.296C651.528,208.029 619.455,229.876 609.177,268.69C601.276,222.398 569.878,173.561 570.709,79.162C571.309,11.084 603.787,-29.558 611.432,-72.894Z" style="fill:rgb(255,200,87);"/>
                </g>
                <g transform="matrix(0.162388,-0.518435,0.446156,0.188695,1172.68,690.308)">
                    <path d="M604.995,-143.931C618.326,-51.34 663.263,25.727 661.5,122.121C660.517,175.847 623.969,228.331 609.177,268.69C601.276,222.398 571.301,147.648 562.075,80.103C551.969,6.102 586.355,-72.487 604.995,-143.931Z" style="fill:rgb(255,200,87);"/>
                </g>
                <g transform="matrix(0.305189,-0.422632,0.36371,0.35463,1137.94,524.484)">
                    <path d="M605.233,-198.291C613.518,-113.675 667.993,-31.894 665.102,101.079C663.285,184.664 623.48,245.766 609.177,268.69C597.049,183.58 548.683,85.632 543.779,-15.112C540.389,-84.763 594.117,-169.333 605.233,-198.291Z" style="fill:rgb(255,200,87);"/>
                </g>
                <g transform="matrix(0.41118,-0.275853,0.237395,0.477792,1154.1,354.852)">
                    <path d="M607.7,-226.794C616.585,-135.213 677.421,-41.824 670.497,80.804C665.758,164.718 623.48,245.766 609.177,268.69C601.276,222.398 557.493,118.345 556.304,25.678C555.264,-55.348 594.74,-167.834 607.7,-226.794Z" style="fill:rgb(255,200,87);"/>
                </g>
                <g transform="matrix(0.467576,-0.0958028,0.0824463,0.543325,1219.22,201.873)">
                    <path d="M601.94,-232.6C619.524,-111.263 663.723,-43.002 662.458,68.262C661.847,121.993 623.48,245.766 609.177,268.69C601.276,222.398 559.974,107.313 555.87,-21.295C553.383,-99.235 590.824,-203.642 601.94,-232.6Z" style="fill:rgb(255,200,87);"/>
                </g>
                <g transform="matrix(0.467576,0.0958028,-0.0824463,0.543325,1325.43,83.9978)">
                    <path d="M606.404,-210.236C616.111,-104.819 659.415,15.828 656.043,109.443C653.16,189.467 623.48,245.766 609.177,268.69C601.276,222.398 553.412,104.102 551.311,-1.667C549.37,-99.396 595.287,-181.277 606.404,-210.236Z" style="fill:rgb(255,200,87);"/>
                </g>
                <g transform="matrix(0.41118,0.275853,-0.237395,0.477792,1459.94,15.4448)">
                    <path d="M606.331,-158.232C612.633,-89.179 654.145,35.413 651.112,134.209C648.666,213.899 623.48,245.766 609.177,268.69C601.276,222.398 559.022,151.177 554.706,59.282C550.743,-25.087 595.215,-129.274 606.331,-158.232Z" style="fill:rgb(255,200,87);"/>
                </g>
                <g transform="matrix(0.305189,0.422632,-0.36371,0.35463,1606.51,4.48211)">
                    <path d="M610.117,-85.697C615.643,-33.99 647.074,69.41 646.744,137.581C646.484,191.315 623.48,245.766 609.177,268.69C601.276,222.398 559.07,163.789 558.675,95.618C558.413,50.38 599,-56.738 610.117,-85.697Z" style="fill:rgb(255,200,87);"/>
                </g>
                <g transform="matrix(0.162388,0.518435,-0.446156,0.188695,1747.47,52.432)">
                    <path d="M611.26,-16.095C616.787,35.612 652.124,83.48 651.794,151.652C651.534,205.386 623.48,245.766 609.177,268.69C602.829,207.379 564.24,170.049 571.149,86.562C574.88,41.477 600.144,12.863 611.26,-16.095Z" style="fill:rgb(255,200,87);"/>
                </g>
            </g>
            <g transform="matrix(0.25914,0,0,0.78818,1120.67,-1510.08)">
                <path d="M1282.33,2661.95C1275.44,2661.33 1267.85,2660.83 1259.54,2660.47C1251.24,2660.12 1243.37,2659.82 1235.93,2659.6C1228.5,2659.38 1222.49,2659.27 1217.91,2659.27L1093.17,2659.27L1091.94,2639.31L1118.18,2632.75C1118.73,2631.41 1119.17,2627.73 1119.49,2621.7C1119.81,2615.68 1120.07,2608.18 1120.25,2599.21C1120.43,2590.25 1120.52,2580.82 1120.52,2570.92L1120.52,2512.12C1120.52,2501.7 1120.43,2492.04 1120.25,2483.16C1120.07,2474.28 1119.81,2466.88 1119.49,2460.94C1119.17,2455.01 1118.73,2451.46 1118.18,2450.3L1091.94,2443.6L1093.17,2423.64L1212,2423.64L1213.23,2444.41L1179.02,2450.57C1178.75,2451.37 1178.38,2454.57 1177.92,2460.14C1177.46,2465.72 1177.1,2473 1176.82,2481.97C1176.55,2490.93 1176.41,2500.99 1176.41,2512.12L1176.41,2570.92C1176.41,2586.63 1176.55,2599.21 1176.82,2608.66C1177.1,2618.11 1177.46,2624.58 1177.92,2628.06C1182.6,2628.86 1187.46,2629.4 1192.5,2629.67C1197.54,2629.93 1203.64,2630.07 1210.79,2630.07L1226.4,2630.07C1232.34,2630.07 1237.67,2629.78 1242.4,2629.2C1247.12,2628.62 1250.99,2628.06 1254,2627.53L1277.09,2583.89L1302.4,2590.05L1282.33,2661.95Z" style="fill:white;fill-rule:nonzero;"/>
                <path d="M1319.44,2659.27L1318.21,2639.31L1344.45,2632.75C1345,2631.5 1345.46,2628.07 1345.83,2622.44C1346.19,2616.82 1346.52,2609.5 1346.79,2600.49C1347.07,2591.48 1347.2,2581.62 1347.2,2570.92L1347.2,2512.12C1347.2,2500.98 1347.07,2490.9 1346.79,2481.89C1346.52,2472.88 1346.19,2465.49 1345.83,2459.73C1345.46,2453.98 1345,2450.7 1344.45,2449.89L1318.21,2443.6L1319.44,2423.64L1430.3,2423.64L1431.54,2443.6L1405.29,2449.89C1404.74,2451.06 1404.26,2454.54 1403.85,2460.34C1403.43,2466.15 1403.13,2473.51 1402.95,2482.43C1402.77,2491.36 1402.67,2501.25 1402.67,2512.12L1402.67,2570.92C1402.67,2581.35 1402.77,2591 1402.95,2599.88C1403.13,2608.75 1403.43,2616.09 1403.85,2621.9C1404.26,2627.7 1404.74,2631.32 1405.29,2632.75L1431.54,2639.31L1430.3,2659.27L1319.44,2659.27Z" style="fill:white;fill-rule:nonzero;"/>
                <path d="M1598.78,2659.27L1597.26,2639.31L1618.82,2635.3C1617.08,2632.36 1615.35,2629.57 1613.61,2626.94C1611.87,2624.31 1609.03,2620.59 1605.09,2615.77L1553.9,2555.46L1537.96,2555.46L1537.96,2536.58L1555.25,2533.11L1640.17,2448.28L1613.92,2443.6L1615.16,2423.64L1708.39,2423.64L1709.63,2444.41L1682.27,2448.56L1591.76,2527.58L1590.64,2510.15L1670.07,2602.64C1676.49,2609.97 1681.62,2615.82 1685.47,2620.19C1689.32,2624.56 1692.39,2627.89 1694.68,2630.16C1696.97,2632.43 1698.7,2634.28 1699.89,2635.71L1721.2,2638.91L1721.2,2659.27L1598.78,2659.27ZM1462.98,2659.27L1461.74,2639.31L1487.99,2632.75C1488.54,2631.06 1488.98,2624.54 1489.3,2613.21C1489.62,2601.87 1489.78,2587.78 1489.78,2570.92L1489.78,2512.12C1489.78,2500.98 1489.64,2490.93 1489.37,2481.96C1489.1,2472.99 1488.77,2465.7 1488.41,2460.07C1488.04,2454.45 1487.58,2451.15 1487.03,2450.17L1460.79,2443.6L1462.02,2423.64L1572.88,2423.64L1574.12,2443.6L1547.87,2450.17C1547.32,2451.33 1546.84,2454.79 1546.42,2460.55C1546.01,2466.31 1545.71,2473.65 1545.53,2482.57C1545.35,2491.49 1545.25,2501.34 1545.25,2512.12L1545.25,2570.92C1545.25,2587.78 1545.46,2601.87 1545.87,2613.21C1546.28,2624.54 1546.67,2631.06 1547.04,2632.75L1568.46,2639.31L1567.22,2659.27L1462.98,2659.27Z" style="fill:white;fill-rule:nonzero;"/>
                <path d="M1858.97,2662.88C1684.01,2658.06 1689.83,2415.88 1858.97,2420.03C2041.21,2424.51 2016.68,2667.23 1858.97,2662.88ZM1857.85,2639.03C1955.21,2641.3 1948.73,2443.86 1858.27,2441.67C1758.76,2439.27 1763.71,2636.84 1857.85,2639.03Z" style="fill:white;fill-rule:nonzero;"/>
                <path d="M2216.92,2585.07L2216.92,2523.38C2216.92,2510.37 2216.85,2498.55 2216.71,2487.94C2216.58,2477.32 2216.3,2468.66 2215.89,2461.96C2215.48,2455.26 2214.95,2451.33 2214.3,2450.17L2185.58,2443.6L2186.82,2423.64L2274.53,2423.64L2275.77,2443.6L2249.52,2450.17C2249.15,2451.33 2248.74,2455.23 2248.28,2461.89C2247.82,2468.54 2247.48,2477.18 2247.25,2487.8C2247.02,2498.42 2246.91,2510.28 2246.91,2523.38L2246.91,2599.96C2246.91,2612.38 2246.93,2623.38 2246.97,2632.97C2247.01,2642.57 2247.04,2652.05 2247.04,2661.41L2221.87,2661.41L2056.36,2474.67L2078.13,2474.41L2078.13,2554.57C2078.13,2569.01 2078.25,2581.83 2078.47,2593.03C2078.7,2604.23 2079.05,2613.23 2079.51,2620.02C2079.97,2626.81 2080.51,2631.05 2081.15,2632.75L2109.88,2639.31L2108.64,2659.27L2019.42,2659.27L2018.18,2639.31L2044.43,2632.75C2044.98,2631.05 2045.41,2626.63 2045.73,2619.48C2046.05,2612.34 2046.35,2603.09 2046.62,2591.76C2046.9,2580.42 2047.04,2568.03 2047.04,2554.57L2047.04,2501.12C2047.04,2493.83 2046.88,2486.56 2046.56,2479.29C2046.24,2472.03 2045.87,2465.72 2045.46,2460.36C2045.05,2454.99 2044.7,2451.6 2044.43,2450.17L2018.18,2443.6L2019.42,2423.64L2084.59,2423.64L2233.59,2585.07L2216.92,2585.07Z" style="fill:white;fill-rule:nonzero;"/>
                <path d="M2288.4,2659.27L2287.17,2639.31L2308.47,2632.75L2392.28,2435.31L2426.54,2416.42L2521.38,2632.75L2542.68,2639.31L2541.45,2659.27L2431.53,2659.27L2430.02,2639.31L2456.41,2632.75L2434.29,2581.01L2429.76,2567.22L2388.41,2472.28L2400.52,2475.53L2366.2,2566.01L2362.22,2578.05L2342.72,2632.75L2369.11,2639.31L2367.87,2659.27L2288.4,2659.27ZM2352.45,2591.06L2352.45,2563.74C2357.86,2564 2364.06,2564.36 2371.06,2564.81C2378.07,2565.26 2387.24,2565.48 2398.59,2565.48C2409.67,2565.48 2418.87,2565.26 2426.19,2564.81C2433.51,2564.36 2439.74,2564 2444.88,2563.74L2444.88,2590.66C2439.77,2590.66 2433.5,2590.53 2426.09,2590.26C2418.67,2589.99 2409.51,2589.86 2398.59,2589.86C2387.49,2589.86 2378.35,2589.99 2371.16,2590.26C2363.98,2590.53 2357.74,2590.8 2352.45,2591.06Z" style="fill:white;fill-rule:nonzero;"/>
                <path d="M2634.08,2662.88C2622.36,2662.88 2609.58,2661.28 2595.74,2658.06C2581.91,2654.85 2569.99,2650.57 2559.99,2645.21L2558.07,2585.9L2584.49,2584.3L2598.38,2625.53C2604.05,2629.1 2610.62,2631.86 2618.09,2633.82C2625.55,2635.78 2632.71,2636.76 2639.58,2636.76C2651.94,2636.76 2661.39,2634.24 2667.93,2629.21C2674.48,2624.18 2677.75,2617.3 2677.75,2608.56C2677.75,2599.38 2674.89,2591.93 2669.16,2586.23C2663.43,2580.52 2656.06,2575.66 2647.04,2571.65C2638.02,2567.64 2628.42,2563.72 2618.25,2559.89C2608.08,2556.05 2598.49,2551.37 2589.47,2545.84C2580.45,2540.31 2573.07,2533.25 2567.35,2524.64C2561.62,2516.03 2558.76,2504.99 2558.76,2491.51C2558.76,2477.14 2562.97,2464.51 2571.41,2453.63C2579.84,2442.74 2591.66,2434.26 2606.88,2428.2C2622.1,2422.13 2639.74,2419.09 2659.82,2419.09C2666.13,2419.09 2672.96,2419.54 2680.29,2420.43C2687.62,2421.33 2694.72,2422.6 2701.6,2424.25C2708.47,2425.9 2714.43,2427.84 2719.47,2430.07L2724.29,2488.59L2698.14,2490.19L2685.08,2450.96C2676.47,2446.69 2666.68,2444.55 2655.69,2444.55C2644.44,2444.55 2635.16,2447.29 2627.83,2452.77C2620.51,2458.25 2616.84,2465.98 2616.84,2475.97C2616.84,2484.8 2619.73,2492.06 2625.5,2497.77C2631.27,2503.47 2638.74,2508.42 2647.89,2512.61C2657.05,2516.8 2666.79,2520.9 2677.09,2524.91C2687.4,2528.92 2697.13,2533.65 2706.29,2539.09C2715.45,2544.53 2722.92,2551.42 2728.69,2559.76C2734.46,2568.1 2737.35,2578.65 2737.35,2591.41C2737.35,2605.15 2733.04,2617.42 2724.42,2628.22C2715.81,2639.01 2703.75,2647.49 2688.26,2653.65C2672.77,2659.8 2654.71,2662.88 2634.08,2662.88Z" style="fill:white;fill-rule:nonzero;"/>
            </g>
            <g transform="matrix(0.18991,0,0,0.562454,1216.31,-633.332)">
                <rect x="2020.58" y="1858.99" width="20.093" height="292.622" style="fill:white;"/>
            </g>
            <g transform="matrix(1.16286e-17,-0.562454,0.18991,3.44404e-17,1221.58,1635.18)">
                <rect x="2020.58" y="1858.99" width="20.093" height="292.622" style="fill:white;"/>
            </g>
            <g transform="matrix(0.18991,0,0,0.562454,1322.31,-731.189)">
                <g transform="matrix(180,0,0,180,1076.97,2502.39)">
                    <path d="M0.117,-0.573L0.339,-0.573L0.458,-0.162L0.421,-0.162L0.683,-0.573L0.924,-0.573L0.915,-0.518L0.848,-0.5C0.847,-0.493 0.846,-0.485 0.844,-0.477C0.843,-0.468 0.83,-0.399 0.824,-0.368L0.798,-0.218C0.791,-0.182 0.787,-0.152 0.784,-0.128C0.782,-0.105 0.779,-0.087 0.777,-0.074L0.837,-0.056L0.822,-0L0.524,-0L0.533,-0.056L0.601,-0.074C0.603,-0.084 0.606,-0.098 0.61,-0.116C0.614,-0.134 0.618,-0.153 0.623,-0.175C0.628,-0.196 0.632,-0.217 0.636,-0.237L0.697,-0.545L0.755,-0.545L0.407,0.003L0.329,0.003L0.172,-0.545L0.257,-0.545L0.188,-0.217C0.185,-0.199 0.181,-0.18 0.178,-0.162C0.174,-0.143 0.172,-0.126 0.169,-0.111C0.166,-0.096 0.164,-0.084 0.163,-0.074L0.229,-0.056L0.214,-0L-0.016,-0L-0.007,-0.056L0.066,-0.074C0.07,-0.083 0.074,-0.1 0.08,-0.125C0.086,-0.151 0.091,-0.175 0.097,-0.198L0.138,-0.38C0.145,-0.412 0.151,-0.439 0.155,-0.458C0.159,-0.478 0.161,-0.492 0.162,-0.499L0.103,-0.518L0.117,-0.573Z" style="fill:rgb(255,200,87);fill-rule:nonzero;"/>
                </g>
                <g transform="matrix(180,0,0,180,1248.22,2502.39)">
                    <path d="M0.126,0.008C0.094,0.008 0.068,-0.003 0.048,-0.026C0.028,-0.048 0.018,-0.077 0.018,-0.111C0.018,-0.158 0.027,-0.201 0.045,-0.241C0.063,-0.282 0.087,-0.317 0.117,-0.347C0.147,-0.377 0.18,-0.401 0.215,-0.418C0.251,-0.436 0.286,-0.444 0.32,-0.444C0.342,-0.444 0.361,-0.438 0.377,-0.425C0.393,-0.413 0.409,-0.395 0.425,-0.372L0.381,-0.342C0.371,-0.35 0.36,-0.356 0.349,-0.36C0.337,-0.364 0.325,-0.366 0.313,-0.366C0.294,-0.366 0.278,-0.361 0.262,-0.351C0.247,-0.34 0.234,-0.325 0.222,-0.306C0.211,-0.287 0.202,-0.264 0.196,-0.238C0.19,-0.211 0.188,-0.182 0.188,-0.15C0.188,-0.138 0.189,-0.128 0.192,-0.121C0.196,-0.114 0.201,-0.11 0.207,-0.11C0.213,-0.11 0.223,-0.119 0.237,-0.136C0.252,-0.153 0.268,-0.176 0.285,-0.205C0.303,-0.233 0.32,-0.264 0.336,-0.298C0.353,-0.332 0.366,-0.366 0.376,-0.399L0.396,-0.404L0.429,-0.436L0.543,-0.436C0.531,-0.401 0.52,-0.366 0.509,-0.332C0.499,-0.297 0.489,-0.264 0.481,-0.232C0.474,-0.201 0.467,-0.174 0.463,-0.151C0.458,-0.128 0.456,-0.111 0.456,-0.1C0.467,-0.107 0.479,-0.118 0.492,-0.131C0.504,-0.144 0.517,-0.159 0.53,-0.175L0.565,-0.136C0.549,-0.112 0.529,-0.089 0.506,-0.066C0.482,-0.044 0.458,-0.026 0.432,-0.013C0.406,0.001 0.382,0.008 0.357,0.008C0.339,0.008 0.325,0.003 0.314,-0.008C0.304,-0.018 0.299,-0.033 0.299,-0.051C0.299,-0.062 0.301,-0.078 0.306,-0.098C0.31,-0.119 0.317,-0.145 0.326,-0.176C0.335,-0.207 0.347,-0.244 0.36,-0.286L0.366,-0.286C0.347,-0.225 0.324,-0.172 0.299,-0.128C0.274,-0.084 0.247,-0.051 0.218,-0.027C0.189,-0.004 0.159,0.008 0.126,0.008Z" style="fill:rgb(255,200,87);fill-rule:nonzero;"/>
                </g>
                <g transform="matrix(180,0,0,180,1359.71,2502.39)">
                    <path d="M0.148,0.008C0.117,0.008 0.09,0.004 0.068,-0.005C0.046,-0.013 0.029,-0.024 0.018,-0.038C0.006,-0.052 0,-0.066 0,-0.082C0,-0.096 0.003,-0.11 0.01,-0.124C0.017,-0.138 0.026,-0.15 0.036,-0.16C0.06,-0.131 0.086,-0.108 0.112,-0.09C0.139,-0.073 0.16,-0.064 0.177,-0.064C0.186,-0.064 0.194,-0.067 0.201,-0.072C0.208,-0.077 0.212,-0.085 0.212,-0.097C0.212,-0.107 0.207,-0.117 0.198,-0.127C0.188,-0.137 0.167,-0.149 0.134,-0.165C0.114,-0.175 0.098,-0.185 0.084,-0.195C0.071,-0.206 0.061,-0.217 0.055,-0.23C0.048,-0.243 0.045,-0.257 0.045,-0.272C0.045,-0.306 0.054,-0.335 0.073,-0.361C0.091,-0.387 0.116,-0.407 0.148,-0.421C0.18,-0.436 0.214,-0.443 0.252,-0.443C0.279,-0.443 0.302,-0.44 0.323,-0.434C0.344,-0.428 0.361,-0.418 0.373,-0.405C0.385,-0.392 0.391,-0.375 0.391,-0.354C0.391,-0.339 0.388,-0.325 0.382,-0.313C0.376,-0.301 0.369,-0.291 0.36,-0.282C0.334,-0.317 0.312,-0.341 0.293,-0.354C0.274,-0.368 0.256,-0.375 0.238,-0.375C0.224,-0.375 0.213,-0.371 0.206,-0.364C0.198,-0.357 0.194,-0.349 0.194,-0.34C0.194,-0.333 0.196,-0.326 0.2,-0.32C0.204,-0.314 0.212,-0.306 0.224,-0.298C0.236,-0.29 0.255,-0.28 0.28,-0.267C0.3,-0.257 0.316,-0.247 0.328,-0.236C0.34,-0.226 0.35,-0.215 0.355,-0.204C0.361,-0.193 0.364,-0.181 0.364,-0.167C0.364,-0.133 0.355,-0.103 0.335,-0.077C0.316,-0.05 0.29,-0.03 0.258,-0.015C0.225,0 0.189,0.008 0.148,0.008Z" style="fill:rgb(255,200,87);fill-rule:nonzero;"/>
                </g>
                <g transform="matrix(180,0,0,180,1442.01,2502.39)">
                    <path d="M0.358,-0.136C0.327,-0.092 0.292,-0.057 0.254,-0.031C0.215,-0.005 0.174,0.008 0.128,0.008C0.098,0.008 0.075,0.001 0.06,-0.012C0.045,-0.026 0.037,-0.045 0.037,-0.071C0.037,-0.078 0.038,-0.087 0.04,-0.098C0.041,-0.108 0.043,-0.118 0.046,-0.129L0.106,-0.363L0.038,-0.363L0.046,-0.398L0.272,-0.546L0.308,-0.546L0.269,-0.391L0.212,-0.164C0.209,-0.152 0.207,-0.143 0.206,-0.138C0.205,-0.132 0.204,-0.128 0.204,-0.125C0.204,-0.113 0.211,-0.107 0.224,-0.107C0.237,-0.107 0.251,-0.113 0.266,-0.124C0.281,-0.134 0.301,-0.156 0.324,-0.188L0.358,-0.136ZM0.22,-0.363L0.233,-0.434L0.389,-0.434L0.374,-0.363L0.22,-0.363Z" style="fill:rgb(255,200,87);fill-rule:nonzero;"/>
                </g>
                <g transform="matrix(180,0,0,180,1517.64,2502.39)">
                    <path d="M0.2,0.008C0.144,0.008 0.1,-0.007 0.069,-0.035C0.038,-0.064 0.022,-0.102 0.022,-0.15C0.022,-0.191 0.03,-0.23 0.045,-0.265C0.061,-0.301 0.081,-0.332 0.107,-0.358C0.133,-0.385 0.163,-0.406 0.197,-0.421C0.23,-0.436 0.265,-0.443 0.302,-0.443C0.344,-0.443 0.376,-0.435 0.398,-0.419C0.42,-0.403 0.431,-0.382 0.431,-0.355C0.431,-0.344 0.428,-0.332 0.423,-0.318C0.418,-0.305 0.407,-0.29 0.39,-0.274C0.374,-0.258 0.348,-0.241 0.313,-0.222C0.279,-0.204 0.232,-0.184 0.174,-0.162L0.174,-0.221C0.206,-0.235 0.23,-0.249 0.246,-0.264C0.261,-0.278 0.271,-0.293 0.275,-0.308C0.28,-0.323 0.282,-0.337 0.282,-0.352C0.282,-0.362 0.28,-0.37 0.276,-0.375C0.272,-0.379 0.267,-0.382 0.261,-0.382C0.251,-0.382 0.24,-0.374 0.229,-0.357C0.218,-0.341 0.208,-0.318 0.2,-0.288C0.192,-0.258 0.188,-0.223 0.188,-0.182C0.188,-0.154 0.194,-0.134 0.205,-0.122C0.216,-0.11 0.231,-0.104 0.249,-0.104C0.266,-0.104 0.287,-0.108 0.312,-0.118C0.336,-0.127 0.36,-0.144 0.383,-0.169L0.417,-0.117C0.383,-0.072 0.346,-0.039 0.306,-0.021C0.266,-0.002 0.231,0.008 0.2,0.008Z" style="fill:rgb(255,200,87);fill-rule:nonzero;"/>
                </g>
                <g transform="matrix(180,0,0,180,1605.57,2502.39)">
                    <path d="M0.362,-0.312C0.351,-0.312 0.339,-0.307 0.328,-0.299C0.317,-0.291 0.306,-0.279 0.295,-0.262C0.285,-0.246 0.273,-0.225 0.262,-0.199C0.247,-0.167 0.234,-0.134 0.222,-0.099C0.209,-0.063 0.199,-0.031 0.191,-0L0.025,-0C0.033,-0.022 0.042,-0.049 0.052,-0.081C0.062,-0.113 0.071,-0.146 0.081,-0.179C0.09,-0.213 0.098,-0.244 0.104,-0.272C0.109,-0.3 0.112,-0.322 0.112,-0.336C0.101,-0.328 0.089,-0.318 0.076,-0.305C0.064,-0.292 0.051,-0.276 0.038,-0.257L0.002,-0.3C0.018,-0.324 0.038,-0.347 0.062,-0.369C0.085,-0.39 0.11,-0.408 0.136,-0.422C0.162,-0.436 0.187,-0.443 0.21,-0.443C0.226,-0.443 0.238,-0.439 0.247,-0.43C0.255,-0.421 0.259,-0.408 0.259,-0.391C0.259,-0.381 0.256,-0.362 0.251,-0.334C0.247,-0.306 0.239,-0.273 0.229,-0.234C0.218,-0.196 0.204,-0.156 0.187,-0.113L0.183,-0.113C0.195,-0.146 0.208,-0.182 0.223,-0.22C0.238,-0.257 0.254,-0.293 0.271,-0.328C0.289,-0.362 0.309,-0.39 0.331,-0.411C0.352,-0.433 0.377,-0.443 0.403,-0.443C0.423,-0.443 0.438,-0.438 0.448,-0.427C0.458,-0.416 0.463,-0.4 0.463,-0.38C0.463,-0.364 0.459,-0.347 0.452,-0.329C0.444,-0.31 0.434,-0.294 0.42,-0.281C0.411,-0.29 0.402,-0.298 0.391,-0.303C0.38,-0.309 0.371,-0.312 0.362,-0.312Z" style="fill:rgb(255,200,87);fill-rule:nonzero;"/>
                </g>
                <g transform="matrix(180,0,0,180,1695.96,2502.39)">
                </g>
                <g transform="matrix(180,0,0,180,1740.3,2502.39)">
                    <path d="M-0.009,0.226C-0.04,0.226 -0.064,0.219 -0.08,0.207C-0.096,0.194 -0.104,0.177 -0.104,0.157C-0.104,0.142 -0.099,0.127 -0.09,0.112C-0.081,0.097 -0.068,0.083 -0.053,0.07C-0.042,0.081 -0.028,0.091 -0.009,0.099C0.01,0.107 0.032,0.111 0.056,0.111C0.078,0.111 0.103,0.107 0.13,0.099C0.157,0.091 0.183,0.074 0.207,0.047L0.239,0.015C0.271,-0.021 0.295,-0.055 0.311,-0.089C0.326,-0.123 0.337,-0.159 0.342,-0.196C0.348,-0.234 0.351,-0.276 0.351,-0.322C0.351,-0.344 0.349,-0.362 0.346,-0.378C0.342,-0.394 0.339,-0.408 0.334,-0.421C0.343,-0.427 0.355,-0.432 0.369,-0.437C0.383,-0.441 0.397,-0.443 0.412,-0.443C0.444,-0.443 0.467,-0.436 0.482,-0.42C0.497,-0.404 0.504,-0.382 0.504,-0.353C0.504,-0.323 0.498,-0.291 0.485,-0.255C0.472,-0.22 0.455,-0.183 0.432,-0.145C0.41,-0.107 0.384,-0.069 0.355,-0.033C0.327,0.004 0.297,0.039 0.265,0.071C0.249,0.087 0.231,0.104 0.209,0.122C0.188,0.139 0.166,0.156 0.142,0.172C0.118,0.188 0.093,0.201 0.067,0.211C0.041,0.221 0.016,0.226 -0.009,0.226ZM0.125,0.143C0.125,0.091 0.124,0.043 0.123,-0C0.121,-0.044 0.119,-0.084 0.116,-0.121C0.114,-0.157 0.111,-0.189 0.108,-0.216C0.105,-0.244 0.102,-0.267 0.099,-0.286C0.096,-0.305 0.094,-0.319 0.092,-0.329C0.071,-0.312 0.051,-0.287 0.031,-0.255L-0.006,-0.296C0.011,-0.323 0.03,-0.347 0.052,-0.369C0.073,-0.391 0.095,-0.409 0.117,-0.423C0.139,-0.437 0.16,-0.443 0.18,-0.443C0.196,-0.443 0.209,-0.439 0.219,-0.432C0.229,-0.424 0.237,-0.411 0.241,-0.395C0.244,-0.384 0.247,-0.367 0.25,-0.342C0.252,-0.318 0.255,-0.289 0.258,-0.256C0.26,-0.223 0.263,-0.189 0.265,-0.154C0.267,-0.118 0.269,-0.084 0.271,-0.051C0.272,-0.018 0.272,0.011 0.272,0.036L0.125,0.143Z" style="fill:rgb(255,200,87);fill-rule:nonzero;"/>
                </g>
                <g transform="matrix(180,0,0,180,1842.29,2502.39)">
                    <path d="M0.195,0.008C0.157,0.008 0.125,0.001 0.099,-0.012C0.073,-0.025 0.054,-0.043 0.041,-0.067C0.028,-0.091 0.021,-0.118 0.021,-0.15C0.021,-0.188 0.028,-0.223 0.042,-0.258C0.056,-0.293 0.075,-0.325 0.099,-0.353C0.124,-0.381 0.152,-0.403 0.186,-0.419C0.219,-0.435 0.255,-0.443 0.293,-0.443C0.33,-0.443 0.361,-0.437 0.387,-0.424C0.413,-0.412 0.432,-0.393 0.446,-0.37C0.459,-0.346 0.466,-0.317 0.466,-0.284C0.466,-0.248 0.459,-0.212 0.445,-0.177C0.432,-0.142 0.413,-0.111 0.388,-0.083C0.364,-0.055 0.335,-0.033 0.302,-0.017C0.269,-0 0.234,0.008 0.195,0.008ZM0.226,-0.065C0.237,-0.065 0.247,-0.072 0.256,-0.084C0.265,-0.096 0.273,-0.113 0.279,-0.134C0.286,-0.155 0.291,-0.178 0.294,-0.204C0.298,-0.229 0.3,-0.256 0.3,-0.283C0.3,-0.313 0.297,-0.336 0.292,-0.352C0.286,-0.367 0.278,-0.375 0.267,-0.375C0.256,-0.375 0.245,-0.369 0.236,-0.357C0.226,-0.345 0.218,-0.328 0.212,-0.308C0.205,-0.287 0.2,-0.263 0.197,-0.237C0.193,-0.211 0.191,-0.185 0.191,-0.157C0.191,-0.127 0.194,-0.104 0.2,-0.089C0.206,-0.073 0.215,-0.065 0.226,-0.065Z" style="fill:rgb(255,200,87);fill-rule:nonzero;"/>
                </g>
                <g transform="matrix(180,0,0,180,1939.18,2502.39)">
                    <path d="M0.219,-0.443C0.24,-0.443 0.256,-0.438 0.268,-0.428C0.28,-0.418 0.286,-0.401 0.286,-0.376C0.286,-0.366 0.284,-0.352 0.279,-0.334C0.275,-0.316 0.269,-0.297 0.262,-0.277C0.255,-0.256 0.249,-0.236 0.242,-0.216C0.235,-0.196 0.229,-0.179 0.225,-0.163C0.22,-0.147 0.218,-0.136 0.218,-0.128C0.218,-0.122 0.219,-0.118 0.222,-0.115C0.224,-0.112 0.228,-0.11 0.232,-0.11C0.241,-0.11 0.251,-0.116 0.264,-0.127C0.276,-0.138 0.29,-0.153 0.304,-0.173C0.319,-0.193 0.333,-0.217 0.348,-0.244C0.363,-0.271 0.377,-0.3 0.39,-0.333C0.403,-0.366 0.415,-0.4 0.425,-0.436L0.58,-0.436C0.572,-0.412 0.564,-0.384 0.554,-0.352C0.545,-0.32 0.535,-0.287 0.526,-0.254C0.517,-0.221 0.51,-0.19 0.504,-0.163C0.498,-0.135 0.495,-0.114 0.495,-0.1C0.507,-0.107 0.519,-0.118 0.532,-0.131C0.544,-0.144 0.557,-0.159 0.57,-0.175L0.606,-0.136C0.59,-0.112 0.57,-0.089 0.546,-0.066C0.523,-0.044 0.498,-0.026 0.472,-0.013C0.446,0.001 0.42,0.008 0.396,0.008C0.378,0.008 0.364,0.003 0.354,-0.007C0.343,-0.017 0.338,-0.032 0.338,-0.05C0.338,-0.06 0.34,-0.076 0.345,-0.098C0.349,-0.12 0.356,-0.147 0.366,-0.179C0.375,-0.211 0.387,-0.247 0.401,-0.286L0.406,-0.286C0.391,-0.233 0.372,-0.188 0.351,-0.151C0.33,-0.113 0.307,-0.083 0.282,-0.06C0.257,-0.037 0.233,-0.02 0.208,-0.009C0.182,0.002 0.159,0.008 0.136,0.008C0.11,0.008 0.089,0.002 0.073,-0.01C0.057,-0.021 0.049,-0.04 0.049,-0.066C0.049,-0.077 0.051,-0.092 0.056,-0.11C0.061,-0.128 0.067,-0.147 0.074,-0.169C0.081,-0.19 0.087,-0.212 0.094,-0.234C0.101,-0.256 0.107,-0.276 0.112,-0.293C0.117,-0.311 0.119,-0.326 0.119,-0.336C0.107,-0.328 0.095,-0.318 0.083,-0.305C0.07,-0.292 0.058,-0.276 0.045,-0.257L0.009,-0.3C0.025,-0.324 0.045,-0.347 0.069,-0.369C0.093,-0.39 0.118,-0.408 0.144,-0.422C0.17,-0.436 0.195,-0.443 0.219,-0.443Z" style="fill:rgb(255,200,87);fill-rule:nonzero;"/>
                </g>
                <g transform="matrix(180,0,0,180,2057.52,2502.39)">
                    <path d="M0.362,-0.312C0.351,-0.312 0.339,-0.307 0.328,-0.299C0.317,-0.291 0.306,-0.279 0.295,-0.262C0.285,-0.246 0.273,-0.225 0.262,-0.199C0.247,-0.167 0.234,-0.134 0.222,-0.099C0.209,-0.063 0.199,-0.031 0.191,-0L0.025,-0C0.033,-0.022 0.042,-0.049 0.052,-0.081C0.062,-0.113 0.071,-0.146 0.081,-0.179C0.09,-0.213 0.098,-0.244 0.104,-0.272C0.109,-0.3 0.112,-0.322 0.112,-0.336C0.101,-0.328 0.089,-0.318 0.076,-0.305C0.064,-0.292 0.051,-0.276 0.038,-0.257L0.002,-0.3C0.018,-0.324 0.038,-0.347 0.062,-0.369C0.085,-0.39 0.11,-0.408 0.136,-0.422C0.162,-0.436 0.187,-0.443 0.21,-0.443C0.226,-0.443 0.238,-0.439 0.247,-0.43C0.255,-0.421 0.259,-0.408 0.259,-0.391C0.259,-0.381 0.256,-0.362 0.251,-0.334C0.247,-0.306 0.239,-0.273 0.229,-0.234C0.218,-0.196 0.204,-0.156 0.187,-0.113L0.183,-0.113C0.195,-0.146 0.208,-0.182 0.223,-0.22C0.238,-0.257 0.254,-0.293 0.271,-0.328C0.289,-0.362 0.309,-0.39 0.331,-0.411C0.352,-0.433 0.377,-0.443 0.403,-0.443C0.423,-0.443 0.438,-0.438 0.448,-0.427C0.458,-0.416 0.463,-0.4 0.463,-0.38C0.463,-0.364 0.459,-0.347 0.452,-0.329C0.444,-0.31 0.434,-0.294 0.42,-0.281C0.411,-0.29 0.402,-0.298 0.391,-0.303C0.38,-0.309 0.371,-0.312 0.362,-0.312Z" style="fill:rgb(255,200,87);fill-rule:nonzero;"/>
                </g>
                <g transform="matrix(180,0,0,180,2147.92,2502.39)">
                </g>
                <g transform="matrix(180,0,0,180,2192.25,2502.39)">
                    <path d="M0.27,-0.364C0.253,-0.364 0.239,-0.355 0.228,-0.337C0.216,-0.319 0.207,-0.296 0.201,-0.268C0.194,-0.24 0.192,-0.211 0.192,-0.182C0.193,-0.154 0.199,-0.134 0.209,-0.123C0.219,-0.112 0.233,-0.106 0.251,-0.106C0.269,-0.106 0.289,-0.111 0.311,-0.121C0.333,-0.131 0.356,-0.147 0.378,-0.169L0.412,-0.117C0.378,-0.072 0.341,-0.039 0.301,-0.021C0.26,-0.002 0.224,0.008 0.192,0.008C0.161,0.008 0.133,0.001 0.107,-0.012C0.081,-0.025 0.061,-0.043 0.045,-0.067C0.029,-0.091 0.021,-0.118 0.021,-0.15C0.021,-0.187 0.029,-0.222 0.043,-0.257C0.057,-0.292 0.077,-0.324 0.103,-0.352C0.128,-0.38 0.158,-0.402 0.192,-0.418C0.227,-0.435 0.264,-0.443 0.305,-0.443C0.341,-0.443 0.37,-0.435 0.392,-0.419C0.414,-0.403 0.425,-0.381 0.425,-0.352C0.425,-0.337 0.422,-0.323 0.417,-0.31C0.411,-0.297 0.404,-0.285 0.396,-0.273C0.377,-0.301 0.356,-0.324 0.331,-0.34C0.306,-0.356 0.286,-0.364 0.27,-0.364Z" style="fill:rgb(255,200,87);fill-rule:nonzero;"/>
                </g>
                <g transform="matrix(180,0,0,180,2277.72,2502.39)">
                    <path d="M0.362,-0.312C0.351,-0.312 0.339,-0.307 0.328,-0.299C0.317,-0.291 0.306,-0.279 0.295,-0.262C0.285,-0.246 0.273,-0.225 0.262,-0.199C0.247,-0.167 0.234,-0.134 0.222,-0.099C0.209,-0.063 0.199,-0.031 0.191,-0L0.025,-0C0.033,-0.022 0.042,-0.049 0.052,-0.081C0.062,-0.113 0.071,-0.146 0.081,-0.179C0.09,-0.213 0.098,-0.244 0.104,-0.272C0.109,-0.3 0.112,-0.322 0.112,-0.336C0.101,-0.328 0.089,-0.318 0.076,-0.305C0.064,-0.292 0.051,-0.276 0.038,-0.257L0.002,-0.3C0.018,-0.324 0.038,-0.347 0.062,-0.369C0.085,-0.39 0.11,-0.408 0.136,-0.422C0.162,-0.436 0.187,-0.443 0.21,-0.443C0.226,-0.443 0.238,-0.439 0.247,-0.43C0.255,-0.421 0.259,-0.408 0.259,-0.391C0.259,-0.381 0.256,-0.362 0.251,-0.334C0.247,-0.306 0.239,-0.273 0.229,-0.234C0.218,-0.196 0.204,-0.156 0.187,-0.113L0.183,-0.113C0.195,-0.146 0.208,-0.182 0.223,-0.22C0.238,-0.257 0.254,-0.293 0.271,-0.328C0.289,-0.362 0.309,-0.39 0.331,-0.411C0.352,-0.433 0.377,-0.443 0.403,-0.443C0.423,-0.443 0.438,-0.438 0.448,-0.427C0.458,-0.416 0.463,-0.4 0.463,-0.38C0.463,-0.364 0.459,-0.347 0.452,-0.329C0.444,-0.31 0.434,-0.294 0.42,-0.281C0.411,-0.29 0.402,-0.298 0.391,-0.303C0.38,-0.309 0.371,-0.312 0.362,-0.312Z" style="fill:rgb(255,200,87);fill-rule:nonzero;"/>
                </g>
                <g transform="matrix(180,0,0,180,2364.24,2502.39)">
                    <path d="M0.126,0.008C0.094,0.008 0.068,-0.003 0.048,-0.026C0.028,-0.048 0.018,-0.077 0.018,-0.111C0.018,-0.158 0.027,-0.201 0.045,-0.241C0.063,-0.282 0.087,-0.317 0.117,-0.347C0.147,-0.377 0.18,-0.401 0.215,-0.418C0.251,-0.436 0.286,-0.444 0.32,-0.444C0.342,-0.444 0.361,-0.438 0.377,-0.425C0.393,-0.413 0.409,-0.395 0.425,-0.372L0.381,-0.342C0.371,-0.35 0.36,-0.356 0.349,-0.36C0.337,-0.364 0.325,-0.366 0.313,-0.366C0.294,-0.366 0.278,-0.361 0.262,-0.351C0.247,-0.34 0.234,-0.325 0.222,-0.306C0.211,-0.287 0.202,-0.264 0.196,-0.238C0.19,-0.211 0.188,-0.182 0.188,-0.15C0.188,-0.138 0.189,-0.128 0.192,-0.121C0.196,-0.114 0.201,-0.11 0.207,-0.11C0.213,-0.11 0.223,-0.119 0.237,-0.136C0.252,-0.153 0.268,-0.176 0.285,-0.205C0.303,-0.233 0.32,-0.264 0.336,-0.298C0.353,-0.332 0.366,-0.366 0.376,-0.399L0.396,-0.404L0.429,-0.436L0.543,-0.436C0.531,-0.401 0.52,-0.366 0.509,-0.332C0.499,-0.297 0.489,-0.264 0.481,-0.232C0.474,-0.201 0.467,-0.174 0.463,-0.151C0.458,-0.128 0.456,-0.111 0.456,-0.1C0.467,-0.107 0.479,-0.118 0.492,-0.131C0.504,-0.144 0.517,-0.159 0.53,-0.175L0.565,-0.136C0.549,-0.112 0.529,-0.089 0.506,-0.066C0.482,-0.044 0.458,-0.026 0.432,-0.013C0.406,0.001 0.382,0.008 0.357,0.008C0.339,0.008 0.325,0.003 0.314,-0.008C0.304,-0.018 0.299,-0.033 0.299,-0.051C0.299,-0.062 0.301,-0.078 0.306,-0.098C0.31,-0.119 0.317,-0.145 0.326,-0.176C0.335,-0.207 0.347,-0.244 0.36,-0.286L0.366,-0.286C0.347,-0.225 0.324,-0.172 0.299,-0.128C0.274,-0.084 0.247,-0.051 0.218,-0.027C0.189,-0.004 0.159,0.008 0.126,0.008Z" style="fill:rgb(255,200,87);fill-rule:nonzero;"/>
                </g>
                <g transform="matrix(180,0,0,180,2475.73,2502.39)">
                    <path d="M0.024,-0.363L0.036,-0.417L0.116,-0.438L0.264,-0.434L0.364,-0.434L0.349,-0.363L0.024,-0.363ZM0.37,-0.682C0.39,-0.682 0.404,-0.677 0.415,-0.668C0.425,-0.66 0.43,-0.646 0.43,-0.626C0.43,-0.61 0.425,-0.592 0.416,-0.572C0.407,-0.553 0.396,-0.536 0.382,-0.523C0.371,-0.539 0.36,-0.55 0.35,-0.555C0.34,-0.561 0.329,-0.563 0.318,-0.563C0.31,-0.563 0.302,-0.56 0.295,-0.552C0.289,-0.545 0.284,-0.532 0.28,-0.515L0.264,-0.434L0.259,-0.386L0.211,-0.129C0.202,-0.084 0.189,-0.04 0.169,0.002C0.15,0.044 0.128,0.082 0.102,0.116C0.076,0.149 0.048,0.176 0.019,0.196C-0.011,0.216 -0.04,0.226 -0.068,0.226C-0.087,0.226 -0.102,0.221 -0.112,0.211C-0.122,0.202 -0.127,0.188 -0.127,0.17C-0.127,0.154 -0.122,0.136 -0.113,0.116C-0.103,0.097 -0.092,0.081 -0.078,0.068C-0.067,0.083 -0.057,0.093 -0.049,0.099C-0.041,0.104 -0.033,0.106 -0.024,0.106C-0.019,0.106 -0.014,0.104 -0.009,0.1C-0.005,0.096 -0.001,0.089 0.002,0.08C0.006,0.071 0.009,0.059 0.013,0.043L0.114,-0.439C0.119,-0.465 0.131,-0.493 0.149,-0.521C0.167,-0.549 0.188,-0.575 0.213,-0.599C0.238,-0.624 0.265,-0.643 0.292,-0.659C0.319,-0.674 0.345,-0.682 0.37,-0.682Z" style="fill:rgb(255,200,87);fill-rule:nonzero;"/>
                </g>
                <g transform="matrix(180,0,0,180,2541.16,2502.39)">
                    <path d="M0.358,-0.136C0.327,-0.092 0.292,-0.057 0.254,-0.031C0.215,-0.005 0.174,0.008 0.128,0.008C0.098,0.008 0.075,0.001 0.06,-0.012C0.045,-0.026 0.037,-0.045 0.037,-0.071C0.037,-0.078 0.038,-0.087 0.04,-0.098C0.041,-0.108 0.043,-0.118 0.046,-0.129L0.106,-0.363L0.038,-0.363L0.046,-0.398L0.272,-0.546L0.308,-0.546L0.269,-0.391L0.212,-0.164C0.209,-0.152 0.207,-0.143 0.206,-0.138C0.205,-0.132 0.204,-0.128 0.204,-0.125C0.204,-0.113 0.211,-0.107 0.224,-0.107C0.237,-0.107 0.251,-0.113 0.266,-0.124C0.281,-0.134 0.301,-0.156 0.324,-0.188L0.358,-0.136ZM0.22,-0.363L0.233,-0.434L0.389,-0.434L0.374,-0.363L0.22,-0.363Z" style="fill:rgb(255,200,87);fill-rule:nonzero;"/>
                </g>
                <g transform="matrix(180,0,0,180,2616.78,2502.39)">
                    <path d="M0.129,-0.257L0.106,-0.515C0.104,-0.547 0.109,-0.575 0.121,-0.6C0.133,-0.625 0.15,-0.645 0.173,-0.66C0.196,-0.674 0.222,-0.682 0.251,-0.682C0.281,-0.682 0.305,-0.673 0.322,-0.656C0.34,-0.639 0.35,-0.618 0.353,-0.591C0.355,-0.564 0.348,-0.536 0.332,-0.506L0.194,-0.247L0.129,-0.257ZM0.13,0.01C0.099,0.01 0.073,-0.001 0.052,-0.022C0.03,-0.043 0.02,-0.068 0.02,-0.098C0.02,-0.118 0.025,-0.137 0.035,-0.154C0.045,-0.17 0.058,-0.184 0.075,-0.194C0.092,-0.204 0.11,-0.209 0.13,-0.209C0.16,-0.209 0.187,-0.198 0.208,-0.176C0.229,-0.154 0.24,-0.128 0.24,-0.098C0.24,-0.068 0.229,-0.042 0.208,-0.021C0.187,-0.001 0.16,0.01 0.13,0.01Z" style="fill:rgb(255,200,87);fill-rule:nonzero;"/>
                </g>
                <g transform="matrix(180,0,0,180,2671.8,2502.39)">
                </g>
            </g>
            <g transform="matrix(0.251547,0,0,0.745003,109.436,242.129)">
                <path d="M4477.03,507.771L4869.36,102.338L5138.15,214.928L5122.61,303.224L5095.38,299.408C5114.49,243.082 5031.62,226.783 4950.74,209.704L5000.81,320.21L4912.31,415.019C4988.73,450.634 5050.26,445.874 5094.33,393.828L5117.8,400.554L5096.82,473.202C5023.95,507.755 4852.52,524.184 4724.04,508.247C4724.23,483.468 4724.35,471.248 4724.35,471.248L4912.97,294.933L4861.8,154.733L4517.35,508.448L4477.03,507.771Z" style="fill:white;"/>
            </g>
        </g>
    </g>
</svg>
