<?xml version="1.0" encoding="UTF-8" standalone="no"?>
<!DOCTYPE svg PUBLIC "-//W3C//DTD SVG 1.1//EN" "http://www.w3.org/Graphics/SVG/1.1/DTD/svg11.dtd">
<svg width="100%" height="100%" viewBox="0 0 3451 1354" version="1.1" xmlns="http://www.w3.org/2000/svg" xmlns:xlink="http://www.w3.org/1999/xlink" xml:space="preserve" xmlns:serif="http://www.serif.com/" style="fill-rule:evenodd;clip-rule:evenodd;stroke-linejoin:round;stroke-miterlimit:2;">
    <g transform="matrix(1,0,0,1,-8.68672,-2694.38)">
        <g id="Artboard-variation1" transform="matrix(5.26565,0,0,1.77792,-6319.49,2676.74)">
            <rect x="1201.78" y="9.919" width="655.36" height="761.53" style="fill:none;"/>
            <g transform="matrix(0.14439,0,0,0.427639,1238.92,131.083)">
                <path d="M618.841,333.105C755.629,333.105 873.819,413.37 928.839,529.332C932.159,536.329 663.737,443.46 663.737,443.46L564.278,538.647C564.278,538.647 343.316,756.111 297.142,794.512C282.038,762.558 275.926,710.082 275.926,676.02C275.926,486.76 429.581,333.105 618.841,333.105Z" style="fill:rgb(255,200,87);"/>
            </g>
            <g id="Rays-2" serif:id="Rays 2" transform="matrix(0.291014,-0.261505,0.0759862,0.741731,836.972,459.984)">
                <g transform="matrix(-1.08584e-16,-0.551707,0.474789,1.30301e-16,1254.14,832.325)">
                    <path d="M611.432,-72.894C616.959,-21.188 652.118,86.124 651.788,154.296C651.528,208.029 619.455,229.876 609.177,268.69C601.276,222.398 569.878,173.561 570.709,79.162C571.309,11.084 603.787,-29.558 611.432,-72.894Z" style="fill:rgb(255,200,87);"/>
                </g>
                <g transform="matrix(0.162388,-0.518435,0.446156,0.188695,1172.68,690.308)">
                    <path d="M604.995,-143.931C618.326,-51.34 663.263,25.727 661.5,122.121C660.517,175.847 623.969,228.331 609.177,268.69C601.276,222.398 571.301,147.648 562.075,80.103C551.969,6.102 586.355,-72.487 604.995,-143.931Z" style="fill:rgb(255,200,87);"/>
                </g>
                <g transform="matrix(0.305189,-0.422632,0.36371,0.35463,1137.94,524.484)">
                    <path d="M605.233,-198.291C613.518,-113.675 667.993,-31.894 665.102,101.079C663.285,184.664 623.48,245.766 609.177,268.69C597.049,183.58 548.683,85.632 543.779,-15.112C540.389,-84.763 594.117,-169.333 605.233,-198.291Z" style="fill:rgb(255,200,87);"/>
                </g>
                <g transform="matrix(0.41118,-0.275853,0.237395,0.477792,1154.1,354.852)">
                    <path d="M607.7,-226.794C616.585,-135.213 677.421,-41.824 670.497,80.804C665.758,164.718 623.48,245.766 609.177,268.69C601.276,222.398 557.493,118.345 556.304,25.678C555.264,-55.348 594.74,-167.834 607.7,-226.794Z" style="fill:rgb(255,200,87);"/>
                </g>
                <g transform="matrix(0.467576,-0.0958028,0.0824463,0.543325,1219.22,201.873)">
                    <path d="M601.94,-232.6C619.524,-111.263 663.723,-43.002 662.458,68.262C661.847,121.993 623.48,245.766 609.177,268.69C601.276,222.398 559.974,107.313 555.87,-21.295C553.383,-99.235 590.824,-203.642 601.94,-232.6Z" style="fill:rgb(255,200,87);"/>
                </g>
                <g transform="matrix(0.467576,0.0958028,-0.0824463,0.543325,1325.43,83.9978)">
                    <path d="M606.404,-210.236C616.111,-104.819 659.415,15.828 656.043,109.443C653.16,189.467 623.48,245.766 609.177,268.69C601.276,222.398 553.412,104.102 551.311,-1.667C549.37,-99.396 595.287,-181.277 606.404,-210.236Z" style="fill:rgb(255,200,87);"/>
                </g>
                <g transform="matrix(0.41118,0.275853,-0.237395,0.477792,1459.94,15.4448)">
                    <path d="M606.331,-158.232C612.633,-89.179 654.145,35.413 651.112,134.209C648.666,213.899 623.48,245.766 609.177,268.69C601.276,222.398 559.022,151.177 554.706,59.282C550.743,-25.087 595.215,-129.274 606.331,-158.232Z" style="fill:rgb(255,200,87);"/>
                </g>
                <g transform="matrix(0.305189,0.422632,-0.36371,0.35463,1606.51,4.48211)">
                    <path d="M610.117,-85.697C615.643,-33.99 647.074,69.41 646.744,137.581C646.484,191.315 623.48,245.766 609.177,268.69C601.276,222.398 559.07,163.789 558.675,95.618C558.413,50.38 599,-56.738 610.117,-85.697Z" style="fill:rgb(255,200,87);"/>
                </g>
                <g transform="matrix(0.162388,0.518435,-0.446156,0.188695,1747.47,52.432)">
                    <path d="M611.26,-16.095C616.787,35.612 652.124,83.48 651.794,151.652C651.534,205.386 623.48,245.766 609.177,268.69C602.829,207.379 564.24,170.049 571.149,86.562C574.88,41.477 600.144,12.863 611.26,-16.095Z" style="fill:rgb(255,200,87);"/>
                </g>
            </g>
            <g transform="matrix(0.18991,0,0,0.562454,1195.23,-973.002)">
                <g transform="matrix(576,0,0,576,1076.97,2771.61)">
                    <path d="M0.486,0.007C0.47,0.005 0.452,0.004 0.433,0.003C0.413,0.002 0.394,0.001 0.377,0.001C0.359,0 0.345,-0 0.334,-0L0.038,-0L0.035,-0.049L0.098,-0.065C0.099,-0.068 0.1,-0.077 0.101,-0.091C0.101,-0.106 0.102,-0.124 0.103,-0.146C0.103,-0.168 0.103,-0.191 0.103,-0.215L0.103,-0.358C0.103,-0.383 0.103,-0.407 0.103,-0.428C0.102,-0.45 0.101,-0.468 0.101,-0.483C0.1,-0.497 0.099,-0.506 0.098,-0.508L0.035,-0.525L0.038,-0.573L0.32,-0.573L0.323,-0.523L0.242,-0.508C0.241,-0.506 0.24,-0.498 0.239,-0.484C0.238,-0.471 0.237,-0.453 0.237,-0.431C0.236,-0.41 0.236,-0.385 0.236,-0.358L0.236,-0.215C0.236,-0.177 0.236,-0.146 0.237,-0.123C0.237,-0.1 0.238,-0.084 0.239,-0.076C0.25,-0.074 0.262,-0.073 0.274,-0.072C0.286,-0.071 0.3,-0.071 0.317,-0.071L0.354,-0.071C0.368,-0.071 0.381,-0.072 0.392,-0.073C0.403,-0.075 0.412,-0.076 0.419,-0.077L0.474,-0.183L0.534,-0.168L0.486,0.007Z" style="fill:rgb(8,76,97);fill-rule:nonzero;"/>
                </g>
                <g transform="matrix(576,0,0,576,1386.66,2771.61)">
                    <path d="M0.037,-0L0.034,-0.049L0.096,-0.065C0.097,-0.068 0.098,-0.076 0.099,-0.09C0.1,-0.103 0.101,-0.121 0.102,-0.143C0.102,-0.165 0.103,-0.189 0.103,-0.215L0.103,-0.358C0.103,-0.385 0.102,-0.41 0.102,-0.432C0.101,-0.453 0.1,-0.471 0.099,-0.485C0.098,-0.499 0.097,-0.507 0.096,-0.509L0.034,-0.525L0.037,-0.573L0.299,-0.573L0.302,-0.525L0.24,-0.509C0.239,-0.507 0.238,-0.498 0.237,-0.484C0.236,-0.47 0.235,-0.452 0.235,-0.43C0.234,-0.409 0.234,-0.384 0.234,-0.358L0.234,-0.215C0.234,-0.19 0.234,-0.166 0.235,-0.145C0.235,-0.123 0.236,-0.105 0.237,-0.091C0.238,-0.077 0.239,-0.068 0.24,-0.065L0.302,-0.049L0.299,-0L0.037,-0Z" style="fill:rgb(8,76,97);fill-rule:nonzero;"/>
                </g>
                <g transform="matrix(576,0,0,576,1580.65,2771.61)">
                    <path d="M0.362,-0L0.358,-0.049L0.409,-0.058C0.405,-0.065 0.401,-0.072 0.397,-0.079C0.393,-0.085 0.386,-0.094 0.377,-0.106L0.255,-0.253L0.218,-0.253L0.218,-0.298L0.259,-0.307L0.46,-0.513L0.398,-0.525L0.401,-0.573L0.621,-0.573L0.624,-0.523L0.559,-0.513L0.345,-0.32L0.342,-0.363L0.531,-0.138C0.546,-0.12 0.558,-0.106 0.567,-0.095C0.576,-0.084 0.583,-0.076 0.589,-0.071C0.594,-0.065 0.598,-0.061 0.601,-0.057L0.652,-0.05L0.652,-0L0.362,-0ZM0.04,-0L0.037,-0.049L0.099,-0.065C0.101,-0.069 0.102,-0.084 0.102,-0.112C0.103,-0.14 0.104,-0.174 0.104,-0.215L0.104,-0.358C0.104,-0.385 0.103,-0.41 0.103,-0.431C0.102,-0.453 0.101,-0.471 0.1,-0.485C0.099,-0.498 0.098,-0.506 0.097,-0.509L0.035,-0.525L0.038,-0.573L0.3,-0.573L0.303,-0.525L0.241,-0.509C0.24,-0.506 0.239,-0.497 0.238,-0.483C0.237,-0.469 0.236,-0.452 0.236,-0.43C0.235,-0.408 0.235,-0.384 0.235,-0.358L0.235,-0.215C0.235,-0.174 0.235,-0.14 0.236,-0.112C0.237,-0.084 0.238,-0.069 0.239,-0.065L0.29,-0.049L0.287,-0L0.04,-0Z" style="fill:rgb(8,76,97);fill-rule:nonzero;"/>
                </g>
                <g transform="matrix(576,0,0,576,1942.73,2771.61)">
                    <path d="M0.352,0.009C0.292,0.009 0.239,-0.004 0.192,-0.028C0.146,-0.053 0.109,-0.087 0.083,-0.131C0.056,-0.174 0.043,-0.224 0.043,-0.28C0.043,-0.338 0.056,-0.39 0.082,-0.435C0.109,-0.481 0.145,-0.517 0.192,-0.543C0.239,-0.569 0.292,-0.582 0.352,-0.582C0.41,-0.582 0.462,-0.57 0.506,-0.546C0.55,-0.521 0.585,-0.488 0.61,-0.444C0.635,-0.401 0.648,-0.351 0.648,-0.294C0.648,-0.244 0.639,-0.2 0.62,-0.162C0.602,-0.124 0.578,-0.092 0.549,-0.067C0.519,-0.042 0.487,-0.023 0.453,-0.01C0.418,0.002 0.384,0.009 0.352,0.009ZM0.359,-0.064C0.389,-0.064 0.414,-0.072 0.434,-0.088C0.455,-0.104 0.47,-0.127 0.48,-0.158C0.49,-0.188 0.495,-0.226 0.495,-0.269C0.495,-0.32 0.489,-0.364 0.476,-0.401C0.463,-0.438 0.445,-0.467 0.422,-0.487C0.399,-0.508 0.372,-0.518 0.34,-0.518C0.296,-0.518 0.261,-0.499 0.235,-0.462C0.21,-0.425 0.197,-0.373 0.197,-0.308C0.197,-0.26 0.204,-0.217 0.218,-0.181C0.232,-0.144 0.251,-0.116 0.275,-0.095C0.299,-0.074 0.327,-0.064 0.359,-0.064Z" style="fill:rgb(8,76,97);fill-rule:nonzero;"/>
                </g>
                <g transform="matrix(576,0,0,576,2340.68,2771.61)">
                    <path d="M0.507,-0.181L0.507,-0.331C0.507,-0.362 0.506,-0.391 0.506,-0.417C0.506,-0.443 0.505,-0.464 0.504,-0.48C0.503,-0.496 0.502,-0.506 0.5,-0.509L0.432,-0.525L0.435,-0.573L0.643,-0.573L0.646,-0.525L0.584,-0.509C0.583,-0.506 0.582,-0.496 0.581,-0.48C0.58,-0.464 0.579,-0.443 0.578,-0.417C0.578,-0.391 0.578,-0.362 0.578,-0.331L0.578,-0.144C0.578,-0.114 0.578,-0.018 0.578,0.005L0.518,0.005L0.126,-0.449L0.178,-0.45L0.178,-0.255C0.178,-0.22 0.178,-0.188 0.179,-0.161C0.179,-0.134 0.18,-0.112 0.181,-0.095C0.182,-0.079 0.183,-0.069 0.185,-0.065L0.253,-0.049L0.25,-0L0.039,-0L0.036,-0.049L0.098,-0.065C0.099,-0.069 0.1,-0.079 0.101,-0.097C0.102,-0.114 0.103,-0.137 0.103,-0.164C0.104,-0.192 0.104,-0.222 0.104,-0.255L0.104,-0.385C0.104,-0.402 0.104,-0.42 0.103,-0.438C0.102,-0.456 0.101,-0.471 0.1,-0.484C0.099,-0.497 0.099,-0.505 0.098,-0.509L0.036,-0.525L0.039,-0.573L0.193,-0.573L0.546,-0.181L0.507,-0.181Z" style="fill:rgb(8,76,97);fill-rule:nonzero;"/>
                </g>
                <g transform="matrix(576,0,0,576,2730.39,2771.61)">
                    <path d="M-0.001,-0L-0.004,-0.049L0.047,-0.065L0.245,-0.545L0.327,-0.591L0.551,-0.065L0.602,-0.049L0.599,-0L0.338,-0L0.335,-0.049L0.397,-0.065L0.345,-0.19L0.334,-0.224L0.236,-0.455L0.265,-0.447L0.184,-0.227L0.174,-0.198L0.128,-0.065L0.191,-0.049L0.188,-0L-0.001,-0ZM0.151,-0.166L0.151,-0.232C0.164,-0.232 0.179,-0.231 0.195,-0.23C0.212,-0.229 0.234,-0.228 0.26,-0.228C0.287,-0.228 0.308,-0.229 0.326,-0.23C0.343,-0.231 0.358,-0.232 0.37,-0.232L0.37,-0.167C0.358,-0.167 0.343,-0.167 0.326,-0.168C0.308,-0.169 0.286,-0.169 0.26,-0.169C0.234,-0.169 0.212,-0.169 0.195,-0.168C0.178,-0.167 0.164,-0.167 0.151,-0.166Z" style="fill:rgb(8,76,97);fill-rule:nonzero;"/>
                </g>
                <g transform="matrix(576,0,0,576,3069.86,2771.61)">
                    <path d="M0.229,0.009C0.201,0.009 0.171,0.005 0.138,-0.003C0.105,-0.011 0.077,-0.021 0.053,-0.034L0.049,-0.178L0.111,-0.182L0.144,-0.082C0.158,-0.073 0.173,-0.067 0.191,-0.062C0.209,-0.057 0.226,-0.055 0.242,-0.055C0.271,-0.055 0.294,-0.061 0.309,-0.073C0.325,-0.085 0.332,-0.102 0.332,-0.123C0.332,-0.146 0.326,-0.164 0.312,-0.178C0.298,-0.192 0.281,-0.203 0.26,-0.213C0.238,-0.223 0.215,-0.232 0.191,-0.242C0.167,-0.251 0.145,-0.263 0.123,-0.276C0.102,-0.289 0.084,-0.307 0.071,-0.328C0.057,-0.348 0.05,-0.375 0.05,-0.408C0.05,-0.443 0.06,-0.474 0.08,-0.5C0.1,-0.527 0.128,-0.547 0.164,-0.562C0.201,-0.577 0.242,-0.584 0.29,-0.584C0.305,-0.584 0.321,-0.583 0.338,-0.581C0.356,-0.579 0.373,-0.576 0.389,-0.572C0.405,-0.568 0.419,-0.563 0.431,-0.558L0.443,-0.415L0.381,-0.411L0.35,-0.507C0.329,-0.517 0.306,-0.522 0.28,-0.522C0.253,-0.522 0.231,-0.516 0.214,-0.502C0.197,-0.489 0.188,-0.47 0.188,-0.446C0.188,-0.424 0.195,-0.407 0.209,-0.393C0.222,-0.379 0.24,-0.367 0.262,-0.357C0.283,-0.347 0.306,-0.337 0.331,-0.327C0.355,-0.317 0.378,-0.306 0.4,-0.292C0.422,-0.279 0.439,-0.262 0.453,-0.242C0.467,-0.222 0.474,-0.196 0.474,-0.165C0.474,-0.132 0.463,-0.102 0.443,-0.076C0.423,-0.049 0.394,-0.029 0.357,-0.014C0.321,0.001 0.278,0.009 0.229,0.009Z" style="fill:rgb(8,76,97);fill-rule:nonzero;"/>
                </g>
                <g transform="matrix(576,0,0,576,3357.98,2771.61)">
                </g>
            </g>
            <g transform="matrix(0.18991,0,0,0.562454,1216.77,-633.332)">
                <rect x="2020.58" y="1858.99" width="20.093" height="292.622" style="fill:rgb(8,76,97);"/>
            </g>
            <g transform="matrix(0.137468,0.388063,-0.131028,0.407138,1298.7,-1198.53)">
                <path d="M2040.67,1858.99L2026.92,2371.57L2006.82,2371.57L2023.46,1857.06L2040.67,1858.99Z" style="fill:rgb(8,76,97);"/>
            </g>
            <g transform="matrix(1.16286e-17,-0.562454,0.18991,3.44404e-17,1221.58,1636.69)">
                <rect x="2020.58" y="1858.99" width="20.093" height="292.622" style="fill:rgb(8,76,97);"/>
            </g>
            <g transform="matrix(0.436033,0.418928,-0.141449,1.29139,681.048,-2468.73)">
                <path d="M1996.12,1524.2L2147.47,1522.24L2154.72,1572.49L2139.5,1575.13C2144.28,1542.45 2078.35,1544.73 2045.83,1552.35L2091.38,1581.91L2061.22,1669.59C2082.21,1680.07 2144.87,1667.68 2155.04,1626.02L2169.53,1625.72L2170.43,1669.15C2121.27,1718.25 1958.77,1761.24 1954.06,1754.74L1957.61,1737.02L1970.67,1732.98L2036.14,1578.59L1985.81,1544.31L1996.12,1524.2Z" style="fill:rgb(8,76,97);"/>
            </g>
            <g transform="matrix(0.18991,0,0,0.562454,1321.96,-725.952)">
                <g transform="matrix(180,0,0,180,1076.97,2502.39)">
                    <path d="M0.117,-0.573L0.339,-0.573L0.458,-0.162L0.421,-0.162L0.683,-0.573L0.924,-0.573L0.915,-0.518L0.848,-0.5C0.847,-0.493 0.846,-0.485 0.844,-0.477C0.843,-0.468 0.83,-0.399 0.824,-0.368L0.798,-0.218C0.791,-0.182 0.787,-0.152 0.784,-0.128C0.782,-0.105 0.779,-0.087 0.777,-0.074L0.837,-0.056L0.822,-0L0.524,-0L0.533,-0.056L0.601,-0.074C0.603,-0.084 0.606,-0.098 0.61,-0.116C0.614,-0.134 0.618,-0.153 0.623,-0.175C0.628,-0.196 0.632,-0.217 0.636,-0.237L0.697,-0.545L0.755,-0.545L0.407,0.003L0.329,0.003L0.172,-0.545L0.257,-0.545L0.188,-0.217C0.185,-0.199 0.181,-0.18 0.178,-0.162C0.174,-0.143 0.172,-0.126 0.169,-0.111C0.166,-0.096 0.164,-0.084 0.163,-0.074L0.229,-0.056L0.214,-0L-0.016,-0L-0.007,-0.056L0.066,-0.074C0.07,-0.083 0.074,-0.1 0.08,-0.125C0.086,-0.151 0.091,-0.175 0.097,-0.198L0.138,-0.38C0.145,-0.412 0.151,-0.439 0.155,-0.458C0.159,-0.478 0.161,-0.492 0.162,-0.499L0.103,-0.518L0.117,-0.573Z" style="fill:rgb(8,76,97);fill-rule:nonzero;"/>
                </g>
                <g transform="matrix(180,0,0,180,1248.22,2502.39)">
                    <path d="M0.126,0.008C0.094,0.008 0.068,-0.003 0.048,-0.026C0.028,-0.048 0.018,-0.077 0.018,-0.111C0.018,-0.158 0.027,-0.201 0.045,-0.241C0.063,-0.282 0.087,-0.317 0.117,-0.347C0.147,-0.377 0.18,-0.401 0.215,-0.418C0.251,-0.436 0.286,-0.444 0.32,-0.444C0.342,-0.444 0.361,-0.438 0.377,-0.425C0.393,-0.413 0.409,-0.395 0.425,-0.372L0.381,-0.342C0.371,-0.35 0.36,-0.356 0.349,-0.36C0.337,-0.364 0.325,-0.366 0.313,-0.366C0.294,-0.366 0.278,-0.361 0.262,-0.351C0.247,-0.34 0.234,-0.325 0.222,-0.306C0.211,-0.287 0.202,-0.264 0.196,-0.238C0.19,-0.211 0.188,-0.182 0.188,-0.15C0.188,-0.138 0.189,-0.128 0.192,-0.121C0.196,-0.114 0.201,-0.11 0.207,-0.11C0.213,-0.11 0.223,-0.119 0.237,-0.136C0.252,-0.153 0.268,-0.176 0.285,-0.205C0.303,-0.233 0.32,-0.264 0.336,-0.298C0.353,-0.332 0.366,-0.366 0.376,-0.399L0.396,-0.404L0.429,-0.436L0.543,-0.436C0.531,-0.401 0.52,-0.366 0.509,-0.332C0.499,-0.297 0.489,-0.264 0.481,-0.232C0.474,-0.201 0.467,-0.174 0.463,-0.151C0.458,-0.128 0.456,-0.111 0.456,-0.1C0.467,-0.107 0.479,-0.118 0.492,-0.131C0.504,-0.144 0.517,-0.159 0.53,-0.175L0.565,-0.136C0.549,-0.112 0.529,-0.089 0.506,-0.066C0.482,-0.044 0.458,-0.026 0.432,-0.013C0.406,0.001 0.382,0.008 0.357,0.008C0.339,0.008 0.325,0.003 0.314,-0.008C0.304,-0.018 0.299,-0.033 0.299,-0.051C0.299,-0.062 0.301,-0.078 0.306,-0.098C0.31,-0.119 0.317,-0.145 0.326,-0.176C0.335,-0.207 0.347,-0.244 0.36,-0.286L0.366,-0.286C0.347,-0.225 0.324,-0.172 0.299,-0.128C0.274,-0.084 0.247,-0.051 0.218,-0.027C0.189,-0.004 0.159,0.008 0.126,0.008Z" style="fill:rgb(8,76,97);fill-rule:nonzero;"/>
                </g>
                <g transform="matrix(180,0,0,180,1359.71,2502.39)">
                    <path d="M0.148,0.008C0.117,0.008 0.09,0.004 0.068,-0.005C0.046,-0.013 0.029,-0.024 0.018,-0.038C0.006,-0.052 0,-0.066 0,-0.082C0,-0.096 0.003,-0.11 0.01,-0.124C0.017,-0.138 0.026,-0.15 0.036,-0.16C0.06,-0.131 0.086,-0.108 0.112,-0.09C0.139,-0.073 0.16,-0.064 0.177,-0.064C0.186,-0.064 0.194,-0.067 0.201,-0.072C0.208,-0.077 0.212,-0.085 0.212,-0.097C0.212,-0.107 0.207,-0.117 0.198,-0.127C0.188,-0.137 0.167,-0.149 0.134,-0.165C0.114,-0.175 0.098,-0.185 0.084,-0.195C0.071,-0.206 0.061,-0.217 0.055,-0.23C0.048,-0.243 0.045,-0.257 0.045,-0.272C0.045,-0.306 0.054,-0.335 0.073,-0.361C0.091,-0.387 0.116,-0.407 0.148,-0.421C0.18,-0.436 0.214,-0.443 0.252,-0.443C0.279,-0.443 0.302,-0.44 0.323,-0.434C0.344,-0.428 0.361,-0.418 0.373,-0.405C0.385,-0.392 0.391,-0.375 0.391,-0.354C0.391,-0.339 0.388,-0.325 0.382,-0.313C0.376,-0.301 0.369,-0.291 0.36,-0.282C0.334,-0.317 0.312,-0.341 0.293,-0.354C0.274,-0.368 0.256,-0.375 0.238,-0.375C0.224,-0.375 0.213,-0.371 0.206,-0.364C0.198,-0.357 0.194,-0.349 0.194,-0.34C0.194,-0.333 0.196,-0.326 0.2,-0.32C0.204,-0.314 0.212,-0.306 0.224,-0.298C0.236,-0.29 0.255,-0.28 0.28,-0.267C0.3,-0.257 0.316,-0.247 0.328,-0.236C0.34,-0.226 0.35,-0.215 0.355,-0.204C0.361,-0.193 0.364,-0.181 0.364,-0.167C0.364,-0.133 0.355,-0.103 0.335,-0.077C0.316,-0.05 0.29,-0.03 0.258,-0.015C0.225,0 0.189,0.008 0.148,0.008Z" style="fill:rgb(8,76,97);fill-rule:nonzero;"/>
                </g>
                <g transform="matrix(180,0,0,180,1442.01,2502.39)">
                    <path d="M0.358,-0.136C0.327,-0.092 0.292,-0.057 0.254,-0.031C0.215,-0.005 0.174,0.008 0.128,0.008C0.098,0.008 0.075,0.001 0.06,-0.012C0.045,-0.026 0.037,-0.045 0.037,-0.071C0.037,-0.078 0.038,-0.087 0.04,-0.098C0.041,-0.108 0.043,-0.118 0.046,-0.129L0.106,-0.363L0.038,-0.363L0.046,-0.398L0.272,-0.546L0.308,-0.546L0.269,-0.391L0.212,-0.164C0.209,-0.152 0.207,-0.143 0.206,-0.138C0.205,-0.132 0.204,-0.128 0.204,-0.125C0.204,-0.113 0.211,-0.107 0.224,-0.107C0.237,-0.107 0.251,-0.113 0.266,-0.124C0.281,-0.134 0.301,-0.156 0.324,-0.188L0.358,-0.136ZM0.22,-0.363L0.233,-0.434L0.389,-0.434L0.374,-0.363L0.22,-0.363Z" style="fill:rgb(8,76,97);fill-rule:nonzero;"/>
                </g>
                <g transform="matrix(180,0,0,180,1517.64,2502.39)">
                    <path d="M0.2,0.008C0.144,0.008 0.1,-0.007 0.069,-0.035C0.038,-0.064 0.022,-0.102 0.022,-0.15C0.022,-0.191 0.03,-0.23 0.045,-0.265C0.061,-0.301 0.081,-0.332 0.107,-0.358C0.133,-0.385 0.163,-0.406 0.197,-0.421C0.23,-0.436 0.265,-0.443 0.302,-0.443C0.344,-0.443 0.376,-0.435 0.398,-0.419C0.42,-0.403 0.431,-0.382 0.431,-0.355C0.431,-0.344 0.428,-0.332 0.423,-0.318C0.418,-0.305 0.407,-0.29 0.39,-0.274C0.374,-0.258 0.348,-0.241 0.313,-0.222C0.279,-0.204 0.232,-0.184 0.174,-0.162L0.174,-0.221C0.206,-0.235 0.23,-0.249 0.246,-0.264C0.261,-0.278 0.271,-0.293 0.275,-0.308C0.28,-0.323 0.282,-0.337 0.282,-0.352C0.282,-0.362 0.28,-0.37 0.276,-0.375C0.272,-0.379 0.267,-0.382 0.261,-0.382C0.251,-0.382 0.24,-0.374 0.229,-0.357C0.218,-0.341 0.208,-0.318 0.2,-0.288C0.192,-0.258 0.188,-0.223 0.188,-0.182C0.188,-0.154 0.194,-0.134 0.205,-0.122C0.216,-0.11 0.231,-0.104 0.249,-0.104C0.266,-0.104 0.287,-0.108 0.312,-0.118C0.336,-0.127 0.36,-0.144 0.383,-0.169L0.417,-0.117C0.383,-0.072 0.346,-0.039 0.306,-0.021C0.266,-0.002 0.231,0.008 0.2,0.008Z" style="fill:rgb(8,76,97);fill-rule:nonzero;"/>
                </g>
                <g transform="matrix(180,0,0,180,1605.57,2502.39)">
                    <path d="M0.362,-0.312C0.351,-0.312 0.339,-0.307 0.328,-0.299C0.317,-0.291 0.306,-0.279 0.295,-0.262C0.285,-0.246 0.273,-0.225 0.262,-0.199C0.247,-0.167 0.234,-0.134 0.222,-0.099C0.209,-0.063 0.199,-0.031 0.191,-0L0.025,-0C0.033,-0.022 0.042,-0.049 0.052,-0.081C0.062,-0.113 0.071,-0.146 0.081,-0.179C0.09,-0.213 0.098,-0.244 0.104,-0.272C0.109,-0.3 0.112,-0.322 0.112,-0.336C0.101,-0.328 0.089,-0.318 0.076,-0.305C0.064,-0.292 0.051,-0.276 0.038,-0.257L0.002,-0.3C0.018,-0.324 0.038,-0.347 0.062,-0.369C0.085,-0.39 0.11,-0.408 0.136,-0.422C0.162,-0.436 0.187,-0.443 0.21,-0.443C0.226,-0.443 0.238,-0.439 0.247,-0.43C0.255,-0.421 0.259,-0.408 0.259,-0.391C0.259,-0.381 0.256,-0.362 0.251,-0.334C0.247,-0.306 0.239,-0.273 0.229,-0.234C0.218,-0.196 0.204,-0.156 0.187,-0.113L0.183,-0.113C0.195,-0.146 0.208,-0.182 0.223,-0.22C0.238,-0.257 0.254,-0.293 0.271,-0.328C0.289,-0.362 0.309,-0.39 0.331,-0.411C0.352,-0.433 0.377,-0.443 0.403,-0.443C0.423,-0.443 0.438,-0.438 0.448,-0.427C0.458,-0.416 0.463,-0.4 0.463,-0.38C0.463,-0.364 0.459,-0.347 0.452,-0.329C0.444,-0.31 0.434,-0.294 0.42,-0.281C0.411,-0.29 0.402,-0.298 0.391,-0.303C0.38,-0.309 0.371,-0.312 0.362,-0.312Z" style="fill:rgb(8,76,97);fill-rule:nonzero;"/>
                </g>
                <g transform="matrix(180,0,0,180,1695.96,2502.39)">
                </g>
                <g transform="matrix(180,0,0,180,1740.3,2502.39)">
                    <path d="M-0.009,0.226C-0.04,0.226 -0.064,0.219 -0.08,0.207C-0.096,0.194 -0.104,0.177 -0.104,0.157C-0.104,0.142 -0.099,0.127 -0.09,0.112C-0.081,0.097 -0.068,0.083 -0.053,0.07C-0.042,0.081 -0.028,0.091 -0.009,0.099C0.01,0.107 0.032,0.111 0.056,0.111C0.078,0.111 0.103,0.107 0.13,0.099C0.157,0.091 0.183,0.074 0.207,0.047L0.239,0.015C0.271,-0.021 0.295,-0.055 0.311,-0.089C0.326,-0.123 0.337,-0.159 0.342,-0.196C0.348,-0.234 0.351,-0.276 0.351,-0.322C0.351,-0.344 0.349,-0.362 0.346,-0.378C0.342,-0.394 0.339,-0.408 0.334,-0.421C0.343,-0.427 0.355,-0.432 0.369,-0.437C0.383,-0.441 0.397,-0.443 0.412,-0.443C0.444,-0.443 0.467,-0.436 0.482,-0.42C0.497,-0.404 0.504,-0.382 0.504,-0.353C0.504,-0.323 0.498,-0.291 0.485,-0.255C0.472,-0.22 0.455,-0.183 0.432,-0.145C0.41,-0.107 0.384,-0.069 0.355,-0.033C0.327,0.004 0.297,0.039 0.265,0.071C0.249,0.087 0.231,0.104 0.209,0.122C0.188,0.139 0.166,0.156 0.142,0.172C0.118,0.188 0.093,0.201 0.067,0.211C0.041,0.221 0.016,0.226 -0.009,0.226ZM0.125,0.143C0.125,0.091 0.124,0.043 0.123,-0C0.121,-0.044 0.119,-0.084 0.116,-0.121C0.114,-0.157 0.111,-0.189 0.108,-0.216C0.105,-0.244 0.102,-0.267 0.099,-0.286C0.096,-0.305 0.094,-0.319 0.092,-0.329C0.071,-0.312 0.051,-0.287 0.031,-0.255L-0.006,-0.296C0.011,-0.323 0.03,-0.347 0.052,-0.369C0.073,-0.391 0.095,-0.409 0.117,-0.423C0.139,-0.437 0.16,-0.443 0.18,-0.443C0.196,-0.443 0.209,-0.439 0.219,-0.432C0.229,-0.424 0.237,-0.411 0.241,-0.395C0.244,-0.384 0.247,-0.367 0.25,-0.342C0.252,-0.318 0.255,-0.289 0.258,-0.256C0.26,-0.223 0.263,-0.189 0.265,-0.154C0.267,-0.118 0.269,-0.084 0.271,-0.051C0.272,-0.018 0.272,0.011 0.272,0.036L0.125,0.143Z" style="fill:rgb(8,76,97);fill-rule:nonzero;"/>
                </g>
                <g transform="matrix(180,0,0,180,1842.29,2502.39)">
                    <path d="M0.195,0.008C0.157,0.008 0.125,0.001 0.099,-0.012C0.073,-0.025 0.054,-0.043 0.041,-0.067C0.028,-0.091 0.021,-0.118 0.021,-0.15C0.021,-0.188 0.028,-0.223 0.042,-0.258C0.056,-0.293 0.075,-0.325 0.099,-0.353C0.124,-0.381 0.152,-0.403 0.186,-0.419C0.219,-0.435 0.255,-0.443 0.293,-0.443C0.33,-0.443 0.361,-0.437 0.387,-0.424C0.413,-0.412 0.432,-0.393 0.446,-0.37C0.459,-0.346 0.466,-0.317 0.466,-0.284C0.466,-0.248 0.459,-0.212 0.445,-0.177C0.432,-0.142 0.413,-0.111 0.388,-0.083C0.364,-0.055 0.335,-0.033 0.302,-0.017C0.269,-0 0.234,0.008 0.195,0.008ZM0.226,-0.065C0.237,-0.065 0.247,-0.072 0.256,-0.084C0.265,-0.096 0.273,-0.113 0.279,-0.134C0.286,-0.155 0.291,-0.178 0.294,-0.204C0.298,-0.229 0.3,-0.256 0.3,-0.283C0.3,-0.313 0.297,-0.336 0.292,-0.352C0.286,-0.367 0.278,-0.375 0.267,-0.375C0.256,-0.375 0.245,-0.369 0.236,-0.357C0.226,-0.345 0.218,-0.328 0.212,-0.308C0.205,-0.287 0.2,-0.263 0.197,-0.237C0.193,-0.211 0.191,-0.185 0.191,-0.157C0.191,-0.127 0.194,-0.104 0.2,-0.089C0.206,-0.073 0.215,-0.065 0.226,-0.065Z" style="fill:rgb(8,76,97);fill-rule:nonzero;"/>
                </g>
                <g transform="matrix(180,0,0,180,1939.18,2502.39)">
                    <path d="M0.219,-0.443C0.24,-0.443 0.256,-0.438 0.268,-0.428C0.28,-0.418 0.286,-0.401 0.286,-0.376C0.286,-0.366 0.284,-0.352 0.279,-0.334C0.275,-0.316 0.269,-0.297 0.262,-0.277C0.255,-0.256 0.249,-0.236 0.242,-0.216C0.235,-0.196 0.229,-0.179 0.225,-0.163C0.22,-0.147 0.218,-0.136 0.218,-0.128C0.218,-0.122 0.219,-0.118 0.222,-0.115C0.224,-0.112 0.228,-0.11 0.232,-0.11C0.241,-0.11 0.251,-0.116 0.264,-0.127C0.276,-0.138 0.29,-0.153 0.304,-0.173C0.319,-0.193 0.333,-0.217 0.348,-0.244C0.363,-0.271 0.377,-0.3 0.39,-0.333C0.403,-0.366 0.415,-0.4 0.425,-0.436L0.58,-0.436C0.572,-0.412 0.564,-0.384 0.554,-0.352C0.545,-0.32 0.535,-0.287 0.526,-0.254C0.517,-0.221 0.51,-0.19 0.504,-0.163C0.498,-0.135 0.495,-0.114 0.495,-0.1C0.507,-0.107 0.519,-0.118 0.532,-0.131C0.544,-0.144 0.557,-0.159 0.57,-0.175L0.606,-0.136C0.59,-0.112 0.57,-0.089 0.546,-0.066C0.523,-0.044 0.498,-0.026 0.472,-0.013C0.446,0.001 0.42,0.008 0.396,0.008C0.378,0.008 0.364,0.003 0.354,-0.007C0.343,-0.017 0.338,-0.032 0.338,-0.05C0.338,-0.06 0.34,-0.076 0.345,-0.098C0.349,-0.12 0.356,-0.147 0.366,-0.179C0.375,-0.211 0.387,-0.247 0.401,-0.286L0.406,-0.286C0.391,-0.233 0.372,-0.188 0.351,-0.151C0.33,-0.113 0.307,-0.083 0.282,-0.06C0.257,-0.037 0.233,-0.02 0.208,-0.009C0.182,0.002 0.159,0.008 0.136,0.008C0.11,0.008 0.089,0.002 0.073,-0.01C0.057,-0.021 0.049,-0.04 0.049,-0.066C0.049,-0.077 0.051,-0.092 0.056,-0.11C0.061,-0.128 0.067,-0.147 0.074,-0.169C0.081,-0.19 0.087,-0.212 0.094,-0.234C0.101,-0.256 0.107,-0.276 0.112,-0.293C0.117,-0.311 0.119,-0.326 0.119,-0.336C0.107,-0.328 0.095,-0.318 0.083,-0.305C0.07,-0.292 0.058,-0.276 0.045,-0.257L0.009,-0.3C0.025,-0.324 0.045,-0.347 0.069,-0.369C0.093,-0.39 0.118,-0.408 0.144,-0.422C0.17,-0.436 0.195,-0.443 0.219,-0.443Z" style="fill:rgb(8,76,97);fill-rule:nonzero;"/>
                </g>
                <g transform="matrix(180,0,0,180,2057.52,2502.39)">
                    <path d="M0.362,-0.312C0.351,-0.312 0.339,-0.307 0.328,-0.299C0.317,-0.291 0.306,-0.279 0.295,-0.262C0.285,-0.246 0.273,-0.225 0.262,-0.199C0.247,-0.167 0.234,-0.134 0.222,-0.099C0.209,-0.063 0.199,-0.031 0.191,-0L0.025,-0C0.033,-0.022 0.042,-0.049 0.052,-0.081C0.062,-0.113 0.071,-0.146 0.081,-0.179C0.09,-0.213 0.098,-0.244 0.104,-0.272C0.109,-0.3 0.112,-0.322 0.112,-0.336C0.101,-0.328 0.089,-0.318 0.076,-0.305C0.064,-0.292 0.051,-0.276 0.038,-0.257L0.002,-0.3C0.018,-0.324 0.038,-0.347 0.062,-0.369C0.085,-0.39 0.11,-0.408 0.136,-0.422C0.162,-0.436 0.187,-0.443 0.21,-0.443C0.226,-0.443 0.238,-0.439 0.247,-0.43C0.255,-0.421 0.259,-0.408 0.259,-0.391C0.259,-0.381 0.256,-0.362 0.251,-0.334C0.247,-0.306 0.239,-0.273 0.229,-0.234C0.218,-0.196 0.204,-0.156 0.187,-0.113L0.183,-0.113C0.195,-0.146 0.208,-0.182 0.223,-0.22C0.238,-0.257 0.254,-0.293 0.271,-0.328C0.289,-0.362 0.309,-0.39 0.331,-0.411C0.352,-0.433 0.377,-0.443 0.403,-0.443C0.423,-0.443 0.438,-0.438 0.448,-0.427C0.458,-0.416 0.463,-0.4 0.463,-0.38C0.463,-0.364 0.459,-0.347 0.452,-0.329C0.444,-0.31 0.434,-0.294 0.42,-0.281C0.411,-0.29 0.402,-0.298 0.391,-0.303C0.38,-0.309 0.371,-0.312 0.362,-0.312Z" style="fill:rgb(8,76,97);fill-rule:nonzero;"/>
                </g>
                <g transform="matrix(180,0,0,180,2147.92,2502.39)">
                </g>
                <g transform="matrix(180,0,0,180,2192.25,2502.39)">
                    <path d="M0.27,-0.364C0.253,-0.364 0.239,-0.355 0.228,-0.337C0.216,-0.319 0.207,-0.296 0.201,-0.268C0.194,-0.24 0.192,-0.211 0.192,-0.182C0.193,-0.154 0.199,-0.134 0.209,-0.123C0.219,-0.112 0.233,-0.106 0.251,-0.106C0.269,-0.106 0.289,-0.111 0.311,-0.121C0.333,-0.131 0.356,-0.147 0.378,-0.169L0.412,-0.117C0.378,-0.072 0.341,-0.039 0.301,-0.021C0.26,-0.002 0.224,0.008 0.192,0.008C0.161,0.008 0.133,0.001 0.107,-0.012C0.081,-0.025 0.061,-0.043 0.045,-0.067C0.029,-0.091 0.021,-0.118 0.021,-0.15C0.021,-0.187 0.029,-0.222 0.043,-0.257C0.057,-0.292 0.077,-0.324 0.103,-0.352C0.128,-0.38 0.158,-0.402 0.192,-0.418C0.227,-0.435 0.264,-0.443 0.305,-0.443C0.341,-0.443 0.37,-0.435 0.392,-0.419C0.414,-0.403 0.425,-0.381 0.425,-0.352C0.425,-0.337 0.422,-0.323 0.417,-0.31C0.411,-0.297 0.404,-0.285 0.396,-0.273C0.377,-0.301 0.356,-0.324 0.331,-0.34C0.306,-0.356 0.286,-0.364 0.27,-0.364Z" style="fill:rgb(8,76,97);fill-rule:nonzero;"/>
                </g>
                <g transform="matrix(180,0,0,180,2277.72,2502.39)">
                    <path d="M0.362,-0.312C0.351,-0.312 0.339,-0.307 0.328,-0.299C0.317,-0.291 0.306,-0.279 0.295,-0.262C0.285,-0.246 0.273,-0.225 0.262,-0.199C0.247,-0.167 0.234,-0.134 0.222,-0.099C0.209,-0.063 0.199,-0.031 0.191,-0L0.025,-0C0.033,-0.022 0.042,-0.049 0.052,-0.081C0.062,-0.113 0.071,-0.146 0.081,-0.179C0.09,-0.213 0.098,-0.244 0.104,-0.272C0.109,-0.3 0.112,-0.322 0.112,-0.336C0.101,-0.328 0.089,-0.318 0.076,-0.305C0.064,-0.292 0.051,-0.276 0.038,-0.257L0.002,-0.3C0.018,-0.324 0.038,-0.347 0.062,-0.369C0.085,-0.39 0.11,-0.408 0.136,-0.422C0.162,-0.436 0.187,-0.443 0.21,-0.443C0.226,-0.443 0.238,-0.439 0.247,-0.43C0.255,-0.421 0.259,-0.408 0.259,-0.391C0.259,-0.381 0.256,-0.362 0.251,-0.334C0.247,-0.306 0.239,-0.273 0.229,-0.234C0.218,-0.196 0.204,-0.156 0.187,-0.113L0.183,-0.113C0.195,-0.146 0.208,-0.182 0.223,-0.22C0.238,-0.257 0.254,-0.293 0.271,-0.328C0.289,-0.362 0.309,-0.39 0.331,-0.411C0.352,-0.433 0.377,-0.443 0.403,-0.443C0.423,-0.443 0.438,-0.438 0.448,-0.427C0.458,-0.416 0.463,-0.4 0.463,-0.38C0.463,-0.364 0.459,-0.347 0.452,-0.329C0.444,-0.31 0.434,-0.294 0.42,-0.281C0.411,-0.29 0.402,-0.298 0.391,-0.303C0.38,-0.309 0.371,-0.312 0.362,-0.312Z" style="fill:rgb(8,76,97);fill-rule:nonzero;"/>
                </g>
                <g transform="matrix(180,0,0,180,2364.24,2502.39)">
                    <path d="M0.126,0.008C0.094,0.008 0.068,-0.003 0.048,-0.026C0.028,-0.048 0.018,-0.077 0.018,-0.111C0.018,-0.158 0.027,-0.201 0.045,-0.241C0.063,-0.282 0.087,-0.317 0.117,-0.347C0.147,-0.377 0.18,-0.401 0.215,-0.418C0.251,-0.436 0.286,-0.444 0.32,-0.444C0.342,-0.444 0.361,-0.438 0.377,-0.425C0.393,-0.413 0.409,-0.395 0.425,-0.372L0.381,-0.342C0.371,-0.35 0.36,-0.356 0.349,-0.36C0.337,-0.364 0.325,-0.366 0.313,-0.366C0.294,-0.366 0.278,-0.361 0.262,-0.351C0.247,-0.34 0.234,-0.325 0.222,-0.306C0.211,-0.287 0.202,-0.264 0.196,-0.238C0.19,-0.211 0.188,-0.182 0.188,-0.15C0.188,-0.138 0.189,-0.128 0.192,-0.121C0.196,-0.114 0.201,-0.11 0.207,-0.11C0.213,-0.11 0.223,-0.119 0.237,-0.136C0.252,-0.153 0.268,-0.176 0.285,-0.205C0.303,-0.233 0.32,-0.264 0.336,-0.298C0.353,-0.332 0.366,-0.366 0.376,-0.399L0.396,-0.404L0.429,-0.436L0.543,-0.436C0.531,-0.401 0.52,-0.366 0.509,-0.332C0.499,-0.297 0.489,-0.264 0.481,-0.232C0.474,-0.201 0.467,-0.174 0.463,-0.151C0.458,-0.128 0.456,-0.111 0.456,-0.1C0.467,-0.107 0.479,-0.118 0.492,-0.131C0.504,-0.144 0.517,-0.159 0.53,-0.175L0.565,-0.136C0.549,-0.112 0.529,-0.089 0.506,-0.066C0.482,-0.044 0.458,-0.026 0.432,-0.013C0.406,0.001 0.382,0.008 0.357,0.008C0.339,0.008 0.325,0.003 0.314,-0.008C0.304,-0.018 0.299,-0.033 0.299,-0.051C0.299,-0.062 0.301,-0.078 0.306,-0.098C0.31,-0.119 0.317,-0.145 0.326,-0.176C0.335,-0.207 0.347,-0.244 0.36,-0.286L0.366,-0.286C0.347,-0.225 0.324,-0.172 0.299,-0.128C0.274,-0.084 0.247,-0.051 0.218,-0.027C0.189,-0.004 0.159,0.008 0.126,0.008Z" style="fill:rgb(8,76,97);fill-rule:nonzero;"/>
                </g>
                <g transform="matrix(180,0,0,180,2475.73,2502.39)">
                    <path d="M0.024,-0.363L0.036,-0.417L0.116,-0.438L0.264,-0.434L0.364,-0.434L0.349,-0.363L0.024,-0.363ZM0.37,-0.682C0.39,-0.682 0.404,-0.677 0.415,-0.668C0.425,-0.66 0.43,-0.646 0.43,-0.626C0.43,-0.61 0.425,-0.592 0.416,-0.572C0.407,-0.553 0.396,-0.536 0.382,-0.523C0.371,-0.539 0.36,-0.55 0.35,-0.555C0.34,-0.561 0.329,-0.563 0.318,-0.563C0.31,-0.563 0.302,-0.56 0.295,-0.552C0.289,-0.545 0.284,-0.532 0.28,-0.515L0.264,-0.434L0.259,-0.386L0.211,-0.129C0.202,-0.084 0.189,-0.04 0.169,0.002C0.15,0.044 0.128,0.082 0.102,0.116C0.076,0.149 0.048,0.176 0.019,0.196C-0.011,0.216 -0.04,0.226 -0.068,0.226C-0.087,0.226 -0.102,0.221 -0.112,0.211C-0.122,0.202 -0.127,0.188 -0.127,0.17C-0.127,0.154 -0.122,0.136 -0.113,0.116C-0.103,0.097 -0.092,0.081 -0.078,0.068C-0.067,0.083 -0.057,0.093 -0.049,0.099C-0.041,0.104 -0.033,0.106 -0.024,0.106C-0.019,0.106 -0.014,0.104 -0.009,0.1C-0.005,0.096 -0.001,0.089 0.002,0.08C0.006,0.071 0.009,0.059 0.013,0.043L0.114,-0.439C0.119,-0.465 0.131,-0.493 0.149,-0.521C0.167,-0.549 0.188,-0.575 0.213,-0.599C0.238,-0.624 0.265,-0.643 0.292,-0.659C0.319,-0.674 0.345,-0.682 0.37,-0.682Z" style="fill:rgb(8,76,97);fill-rule:nonzero;"/>
                </g>
                <g transform="matrix(180,0,0,180,2541.16,2502.39)">
                    <path d="M0.358,-0.136C0.327,-0.092 0.292,-0.057 0.254,-0.031C0.215,-0.005 0.174,0.008 0.128,0.008C0.098,0.008 0.075,0.001 0.06,-0.012C0.045,-0.026 0.037,-0.045 0.037,-0.071C0.037,-0.078 0.038,-0.087 0.04,-0.098C0.041,-0.108 0.043,-0.118 0.046,-0.129L0.106,-0.363L0.038,-0.363L0.046,-0.398L0.272,-0.546L0.308,-0.546L0.269,-0.391L0.212,-0.164C0.209,-0.152 0.207,-0.143 0.206,-0.138C0.205,-0.132 0.204,-0.128 0.204,-0.125C0.204,-0.113 0.211,-0.107 0.224,-0.107C0.237,-0.107 0.251,-0.113 0.266,-0.124C0.281,-0.134 0.301,-0.156 0.324,-0.188L0.358,-0.136ZM0.22,-0.363L0.233,-0.434L0.389,-0.434L0.374,-0.363L0.22,-0.363Z" style="fill:rgb(8,76,97);fill-rule:nonzero;"/>
                </g>
                <g transform="matrix(180,0,0,180,2616.78,2502.39)">
                    <path d="M0.129,-0.257L0.106,-0.515C0.104,-0.547 0.109,-0.575 0.121,-0.6C0.133,-0.625 0.15,-0.645 0.173,-0.66C0.196,-0.674 0.222,-0.682 0.251,-0.682C0.281,-0.682 0.305,-0.673 0.322,-0.656C0.34,-0.639 0.35,-0.618 0.353,-0.591C0.355,-0.564 0.348,-0.536 0.332,-0.506L0.194,-0.247L0.129,-0.257ZM0.13,0.01C0.099,0.01 0.073,-0.001 0.052,-0.022C0.03,-0.043 0.02,-0.068 0.02,-0.098C0.02,-0.118 0.025,-0.137 0.035,-0.154C0.045,-0.17 0.058,-0.184 0.075,-0.194C0.092,-0.204 0.11,-0.209 0.13,-0.209C0.16,-0.209 0.187,-0.198 0.208,-0.176C0.229,-0.154 0.24,-0.128 0.24,-0.098C0.24,-0.068 0.229,-0.042 0.208,-0.021C0.187,-0.001 0.16,0.01 0.13,0.01Z" style="fill:rgb(8,76,97);fill-rule:nonzero;"/>
                </g>
                <g transform="matrix(180,0,0,180,2671.8,2502.39)">
                </g>
            </g>
        </g>
    </g>
</svg>
