<?xml version="1.0" encoding="UTF-8" standalone="no"?>
<!DOCTYPE svg PUBLIC "-//W3C//DTD SVG 1.1//EN" "http://www.w3.org/Graphics/SVG/1.1/DTD/svg11.dtd">
<svg width="100%" height="100%" viewBox="0 0 350 350" version="1.1" xmlns="http://www.w3.org/2000/svg" xmlns:xlink="http://www.w3.org/1999/xlink" xml:space="preserve" xmlns:serif="http://www.serif.com/" style="fill-rule:evenodd;clip-rule:evenodd;stroke-linejoin:round;stroke-miterlimit:2;">
    <g transform="matrix(1,0,0,1,-59.6527,-28.9316)">
        <g id="Icon1" transform="matrix(0.644205,0,0,0.833868,82.9933,696.726)">
            <rect x="-36.232" y="-800.839" width="543.305" height="419.731" style="fill:none;"/>
            <g transform="matrix(1.36897,0,0,1.0576,-242.588,-904.31)">
                <path d="M303.875,194.251C297.906,200.342 284.682,216.823 287.092,244.119C277.948,252.089 265.997,256.918 252.927,256.918C224.208,256.918 200.891,233.601 200.891,204.882C200.891,176.162 224.208,152.846 252.927,152.846C278.004,152.846 298.962,170.623 303.875,194.251Z" style="fill:rgb(50,48,49);"/>
            </g>
            <g transform="matrix(1.36897,0,0,1.41068,-225.868,-964.993)">
                <path d="M308.956,270.265C268.46,279.875 248.349,306.621 245.983,330.577L175.253,330.577C175.253,330.577 169.863,330.242 166.689,327.823C163.514,325.403 163.275,321.59 163.275,321.59L163.275,297.711C163.275,265.669 197.974,239.655 240.713,239.655C270.214,239.655 295.884,252.049 308.956,270.265Z" style="fill:rgb(50,48,49);"/>
            </g>
            <g transform="matrix(1.36897,0,0,1.0576,20.9298,-904.31)">
                <path d="M219.081,244.394C221.015,224.321 211.995,202.972 201.789,194.398C206.474,170.477 227.643,152.846 252.927,152.846C281.647,152.846 304.964,176.162 304.964,204.882C304.964,233.601 281.647,256.918 252.927,256.918C240.008,256.918 228.183,252.2 219.081,244.394Z" style="fill:rgb(50,48,49);"/>
            </g>
            <g transform="matrix(1.36897,0,0,1.41068,37.6497,-964.993)">
                <path d="M235.502,330.577C232.024,300.385 205.395,278.305 172.456,270.285C185.524,252.059 211.202,239.655 240.713,239.655C283.453,239.655 318.152,265.669 318.152,297.711L318.152,321.59C318.152,321.59 318.299,325.578 314.835,328.148C311.371,330.718 306.153,330.577 306.153,330.577L235.502,330.577Z" style="fill:rgb(50,48,49);"/>
            </g>
            <g transform="matrix(1.5523,0,0,1.19923,-157.198,-899.272)">
                <circle cx="252.927" cy="204.882" r="52.036" style="fill:rgb(50,48,49);"/>
            </g>
            <g transform="matrix(1.5523,0,0,1.5996,-138.239,-968.081)">
                <path d="M318.152,297.711L318.152,321.59C318.152,321.59 318.299,325.578 314.835,328.148C311.371,330.718 306.153,330.577 306.153,330.577L175.253,330.577C175.253,330.577 169.863,330.242 166.689,327.823C163.514,325.403 163.275,321.59 163.275,321.59L163.275,297.711C163.275,265.669 197.974,239.655 240.713,239.655C283.453,239.655 318.152,265.669 318.152,297.711Z" style="fill:rgb(50,48,49);"/>
            </g>
        </g>
    </g>
</svg>
