<?xml version="1.0" encoding="UTF-8" standalone="no"?>
<!DOCTYPE svg PUBLIC "-//W3C//DTD SVG 1.1//EN" "http://www.w3.org/Graphics/SVG/1.1/DTD/svg11.dtd">
<svg width="100%" height="100%" viewBox="0 0 350 350" version="1.1" xmlns="http://www.w3.org/2000/svg" xmlns:xlink="http://www.w3.org/1999/xlink" xml:space="preserve" xmlns:serif="http://www.serif.com/" style="fill-rule:evenodd;clip-rule:evenodd;stroke-linejoin:round;stroke-miterlimit:2;">
    <g transform="matrix(1,0,0,1,-3218.83,-324.618)">
        <g id="Icon4" transform="matrix(0.644205,0,0,0.833868,3242.17,992.412)">
            <rect x="-36.232" y="-800.839" width="543.305" height="419.731" style="fill:none;"/>
            <g transform="matrix(1.55187,0,0,1.1989,-200.714,-867.576)">
                <circle cx="252.927" cy="204.882" r="52.036" style="fill:white;"/>
            </g>
            <g transform="matrix(1.72099,0,0,1.59916,-222.47,-929.112)">
                <path d="M318.152,297.711L318.152,321.59C318.152,321.59 318.299,325.578 314.835,328.148C311.371,330.718 306.153,330.577 306.153,330.577L175.253,330.577C175.253,330.577 169.863,330.242 166.689,327.823C163.514,325.403 163.275,321.59 163.275,321.59L163.275,297.711C163.275,265.669 197.974,239.655 240.713,239.655C283.453,239.655 318.152,265.669 318.152,297.711Z" style="fill:white;"/>
            </g>
            <g transform="matrix(1.38617,0,0,1.07088,-2067.28,-794.024)">
                <path d="M1630.66,55.721C1694.67,55.721 1746.65,107.694 1746.65,171.71C1746.65,235.727 1694.67,287.7 1630.66,287.7C1566.64,287.7 1514.67,235.727 1514.67,171.71C1514.67,107.694 1566.64,55.721 1630.66,55.721ZM1630.66,69.16C1574.06,69.16 1528.11,115.111 1528.11,171.71C1528.11,228.31 1574.06,274.261 1630.66,274.261C1687.26,274.261 1733.21,228.31 1733.21,171.71C1733.21,115.111 1687.26,69.16 1630.66,69.16Z" style="fill:white;"/>
            </g>
            <g transform="matrix(0.236848,0,0,0.182977,-40.0907,-775.088)">
                <path d="M1630.66,55.721C1694.67,55.721 1746.65,107.694 1746.65,171.71C1746.65,235.727 1694.67,287.7 1630.66,287.7C1566.64,287.7 1514.67,235.727 1514.67,171.71C1514.67,107.694 1566.64,55.721 1630.66,55.721ZM1630.66,108.153C1595.58,108.153 1567.1,136.632 1567.1,171.71C1567.1,206.789 1595.58,235.268 1630.66,235.268C1665.74,235.268 1694.22,206.789 1694.22,171.71C1694.22,136.632 1665.74,108.153 1630.66,108.153Z" style="fill:white;"/>
            </g>
            <g transform="matrix(0.236848,0,0,0.182977,66.0176,-768.798)">
                <path d="M1630.66,55.721C1694.67,55.721 1746.65,107.694 1746.65,171.71C1746.65,235.727 1694.67,287.7 1630.66,287.7C1566.64,287.7 1514.67,235.727 1514.67,171.71C1514.67,107.694 1566.64,55.721 1630.66,55.721ZM1630.66,108.153C1595.58,108.153 1567.1,136.632 1567.1,171.71C1567.1,206.789 1595.58,235.268 1630.66,235.268C1665.74,235.268 1694.22,206.789 1694.22,171.71C1694.22,136.632 1665.74,108.153 1630.66,108.153Z" style="fill:white;"/>
            </g>
            <g transform="matrix(1.5523,0,0,1.19923,-2508.56,-663.973)">
                <path d="M1896.81,168.319L1896.81,178.96L1822.01,104.585L1824.97,96.591L1896.81,168.319Z" style="fill:white;"/>
            </g>
            <g transform="matrix(1.5523,0,0,1.19923,-2525.1,-773.536)">
                <path d="M1896.22,166.707L1896.22,177.349L1850.19,158.019L1850.19,147.378L1896.22,166.707Z" style="fill:white;"/>
            </g>
            <g transform="matrix(1.5523,0,0,1.19923,-2504.35,-925.616)">
                <path d="M1894.06,163.86L1898.85,170.317L1832.03,228.168L1828.28,220.164L1894.06,163.86Z" style="fill:white;"/>
            </g>
            <g transform="matrix(1.5523,0,0,1.19923,-2613.86,-937.348)">
                <path d="M1895.31,169.932L1900.75,175.078L1878.7,202.06L1873.7,195.28L1895.31,169.932Z" style="fill:white;"/>
            </g>
            <g transform="matrix(0.236848,0,0,0.182977,67.9312,-481.775)">
                <path d="M1630.66,55.721C1694.67,55.721 1746.65,107.694 1746.65,171.71C1746.65,235.727 1694.67,287.7 1630.66,287.7C1566.64,287.7 1514.67,235.727 1514.67,171.71C1514.67,107.694 1566.64,55.721 1630.66,55.721ZM1630.66,108.153C1595.58,108.153 1567.1,136.632 1567.1,171.71C1567.1,206.789 1595.58,235.268 1630.66,235.268C1665.74,235.268 1694.22,206.789 1694.22,171.71C1694.22,136.632 1665.74,108.153 1630.66,108.153Z" style="fill:white;"/>
            </g>
            <g transform="matrix(0.236848,0,0,0.182977,53.1637,-594.94)">
                <path d="M1630.66,55.721C1694.67,55.721 1746.65,107.694 1746.65,171.71C1746.65,235.727 1694.67,287.7 1630.66,287.7C1566.64,287.7 1514.67,235.727 1514.67,171.71C1514.67,107.694 1566.64,55.721 1630.66,55.721ZM1630.66,108.153C1595.58,108.153 1567.1,136.632 1567.1,171.71C1567.1,206.789 1595.58,235.268 1630.66,235.268C1665.74,235.268 1694.22,206.789 1694.22,171.71C1694.22,136.632 1665.74,108.153 1630.66,108.153Z" style="fill:white;"/>
            </g>
        </g>
    </g>
</svg>
