<?xml version="1.0" encoding="UTF-8" standalone="no"?>
<!DOCTYPE svg PUBLIC "-//W3C//DTD SVG 1.1//EN" "http://www.w3.org/Graphics/SVG/1.1/DTD/svg11.dtd">
<svg width="100%" height="100%" viewBox="0 0 350 350" version="1.1" xmlns="http://www.w3.org/2000/svg" xmlns:xlink="http://www.w3.org/1999/xlink" xml:space="preserve" xmlns:serif="http://www.serif.com/" style="fill-rule:evenodd;clip-rule:evenodd;stroke-linejoin:round;stroke-miterlimit:2;">
    <g transform="matrix(1,0,0,1,-1780.71,-332.775)">
        <g id="Icon1" transform="matrix(0.644205,0,0,0.833868,1804.05,1000.57)">
            <rect x="-36.232" y="-800.839" width="543.305" height="419.731" style="fill:none;"/>
            <g transform="matrix(1.36897,0,0,1.0576,-242.588,-904.31)">
                <path d="M281.978,248.049C273.679,253.648 263.682,256.918 252.927,256.918C224.208,256.918 200.891,233.601 200.891,204.882C200.891,176.162 224.208,152.846 252.927,152.846C275.702,152.846 295.079,167.508 302.125,187.901C289.171,200.297 281.098,217.755 281.098,237.084C281.098,240.816 281.399,244.479 281.978,248.049Z" style="fill:white;"/>
            </g>
            <g transform="matrix(1.36897,0,0,1.41068,-225.868,-964.993)">
                <path d="M305.643,266.079C305.777,266.233 305.91,266.388 306.042,266.543C269.652,275.736 242.903,300.704 240.29,330.577L175.253,330.577C175.253,330.577 169.863,330.242 166.689,327.823C163.514,325.403 163.275,321.59 163.275,321.59L163.275,297.711C163.275,265.669 197.974,239.655 240.713,239.655C254.493,239.655 267.436,242.359 278.651,247.098C285.131,255.138 294.485,261.732 305.643,266.079Z" style="fill:white;"/>
            </g>
            <g transform="matrix(1.36897,0,0,1.0576,20.9298,-904.31)">
                <path d="M203.565,187.744C210.544,167.279 230.052,152.846 252.927,152.846C281.647,152.846 304.964,176.162 304.964,204.882C304.964,233.601 281.647,256.918 252.927,256.918C242.173,256.918 232.175,253.648 223.877,248.049C224.456,244.479 224.757,240.816 224.757,237.084C224.757,217.674 216.616,200.15 203.565,187.744Z" style="fill:white;"/>
            </g>
            <g transform="matrix(1.36897,0,0,1.41068,37.6497,-964.993)">
                <path d="M202.777,247.097C213.992,242.359 226.935,239.655 240.713,239.655C283.453,239.655 318.152,265.669 318.152,297.711L318.152,321.59C318.152,321.59 318.299,325.578 314.835,328.148C311.371,330.718 306.153,330.577 306.153,330.577L241.137,330.577C238.524,300.704 211.774,275.737 175.385,266.543C175.517,266.388 175.65,266.233 175.784,266.079C186.943,261.733 196.298,255.138 202.777,247.097Z" style="fill:white;"/>
            </g>
            <g transform="matrix(1.5523,0,0,1.19923,-157.198,-899.272)">
                <circle cx="252.927" cy="204.882" r="52.036" style="fill:white;"/>
            </g>
            <g transform="matrix(1.5523,0,0,1.5996,-138.239,-968.081)">
                <path d="M318.152,297.711L318.152,321.59C318.152,321.59 318.299,325.578 314.835,328.148C311.371,330.718 306.153,330.577 306.153,330.577L175.253,330.577C175.253,330.577 169.863,330.242 166.689,327.823C163.514,325.403 163.275,321.59 163.275,321.59L163.275,297.711C163.275,265.669 197.974,239.655 240.713,239.655C283.453,239.655 318.152,265.669 318.152,297.711Z" style="fill:white;"/>
            </g>
        </g>
    </g>
</svg>
