<?xml version="1.0" encoding="UTF-8" standalone="no"?>
<!DOCTYPE svg PUBLIC "-//W3C//DTD SVG 1.1//EN" "http://www.w3.org/Graphics/SVG/1.1/DTD/svg11.dtd">
<svg width="100%" height="100%" viewBox="0 0 350 350" version="1.1" xmlns="http://www.w3.org/2000/svg" xmlns:xlink="http://www.w3.org/1999/xlink" xml:space="preserve" xmlns:serif="http://www.serif.com/" style="fill-rule:evenodd;clip-rule:evenodd;stroke-linejoin:round;stroke-miterlimit:2;">
    <g transform="matrix(1,0,0,1,-2727.32,-328.264)">
        <g id="Icon3" transform="matrix(0.644205,0,0,0.833868,2750.66,996.058)">
            <rect x="-36.232" y="-800.839" width="543.305" height="419.731" style="fill:none;"/>
            <g transform="matrix(1.81077,0,0,1.39891,-248.431,-978.187)">
                <circle cx="252.927" cy="204.882" r="52.036" style="fill:white;"/>
            </g>
            <g transform="matrix(1.95136,0,0,1.86595,-257.585,-1051.22)">
                <path d="M282.691,330.577L175.253,330.577C175.253,330.577 169.863,330.242 166.689,327.823C163.514,325.403 163.275,321.59 163.275,321.59L163.275,297.711C163.275,265.669 197.974,239.655 240.713,239.655C265.338,239.655 287.294,248.291 301.481,261.74C298.506,263.732 295.797,266.245 293.513,269.331C281.225,252.727 256.648,252.727 244.359,261.029C232.071,269.331 232.071,285.935 244.359,302.539C251.322,312.619 267.14,322.698 282.691,330.577ZM318.005,323.043C317.734,324.438 316.972,326.563 314.835,328.148C311.371,330.718 306.153,330.577 306.153,330.577L304.335,330.577C308.947,328.24 313.583,325.71 318.005,323.043Z" style="fill:white;"/>
            </g>
            <g transform="matrix(2.62504,0,0,2.06498,-3170.92,-1107.58)">
                <path d="M1329.32,259.247C1341.27,247.928 1358.6,249.689 1367.98,257.987C1378.38,267.191 1379.85,285.562 1369.49,303.964C1363.02,316.14 1346.74,328.539 1332.98,336.655C1330.73,337.982 1327.92,337.982 1325.67,336.655C1311.91,328.539 1295.63,316.143 1289.17,303.984C1278.8,285.572 1280.26,267.193 1290.67,257.987C1300.04,249.689 1317.38,247.928 1329.32,259.247ZM1329.32,270.666C1320.85,255.662 1303.89,255.662 1295.42,263.164C1286.94,270.666 1286.94,285.67 1295.42,300.674C1301.35,311.927 1316.61,323.179 1329.32,330.681C1342.04,323.179 1357.3,311.927 1363.23,300.674C1371.71,285.67 1371.71,270.666 1363.23,263.164C1354.75,255.662 1337.8,255.662 1329.32,270.666Z" style="fill:white;"/>
            </g>
        </g>
    </g>
</svg>
