<?xml version="1.0" encoding="UTF-8" standalone="no"?>
<!DOCTYPE svg PUBLIC "-//W3C//DTD SVG 1.1//EN" "http://www.w3.org/Graphics/SVG/1.1/DTD/svg11.dtd">
<svg width="100%" height="100%" viewBox="0 0 350 350" version="1.1" xmlns="http://www.w3.org/2000/svg" xmlns:xlink="http://www.w3.org/1999/xlink" xml:space="preserve" xmlns:serif="http://www.serif.com/" style="fill-rule:evenodd;clip-rule:evenodd;stroke-linejoin:round;stroke-miterlimit:2;">
    <g transform="matrix(1,0,0,1,-537.737,-17.6667)">
        <g id="Icon2" transform="matrix(0.644205,0,0,0.833868,561.077,685.461)">
            <rect x="-36.232" y="-800.839" width="543.305" height="419.731" style="fill:none;"/>
            <g transform="matrix(1,0,0,1,18.5011,-9.0792)">
                <g transform="matrix(1.5151,0,0,1.31209,-872.906,-841.205)">
                    <path d="M727.53,268.927L807.554,215.073L807.554,290.637C746.799,274.764 688.944,274.054 634.056,290.637L634.056,216.306L718.028,268.893C721.375,270.625 724.515,270.373 727.53,268.927Z" style="fill:rgb(50,48,49);"/>
                </g>
                <g transform="matrix(1.21089,0.920039,-1.19091,0.93547,-379.689,-1409.14)">
                    <path d="M608.78,274.539C608.832,274.067 609.22,273.257 609.593,272.699C619.482,257.939 663.303,190.684 668.112,185.977C668.316,186.606 668.649,187.176 669.119,187.653C669.294,187.832 669.483,187.992 669.684,188.133C659.784,201.424 642.504,227.995 628.169,250.853C641.407,232.59 656.635,212.543 672.868,188.943C674.592,188.829 676.461,187.989 677.987,186.488C680.797,183.725 681.385,179.76 679.3,177.64C677.214,175.52 673.24,176.042 670.431,178.805C669.133,180.081 668.31,181.613 668.004,183.102C667.99,183.109 667.975,183.117 667.961,183.125C663.434,185.522 618.757,253.267 606.029,273.262L589.745,275.833C587.884,275.833 586.373,274.323 586.373,272.462L624.791,140.841C624.791,138.98 626.302,137.469 628.163,137.469L763.98,94.855C765.841,94.855 767.351,96.366 767.351,98.227L744.59,248.545C744.59,250.406 743.079,251.917 741.218,251.917L616.072,271.677C616.426,272.244 616.889,272.833 617.482,273.448L667.072,323.869C669.542,323.382 672.202,324.106 674.098,326.034C675.941,327.907 676.635,330.485 676.187,332.888C684.292,337.595 693.079,342.13 704.069,346.107L699.296,350.646C695.626,348.969 689.822,346.248 685.267,344.024L695.337,354.541L684.565,368.45L668.978,339.193C666.843,339.302 664.673,338.534 663.058,336.891C661.067,334.866 660.417,332.02 661.1,329.459L609.958,277.459C609.958,277.459 608.611,276.081 608.78,274.539Z" style="fill:rgb(50,48,49);"/>
                </g>
            </g>
        </g>
    </g>
</svg>
