<?xml version="1.0" encoding="UTF-8" standalone="no"?>
<!DOCTYPE svg PUBLIC "-//W3C//DTD SVG 1.1//EN" "http://www.w3.org/Graphics/SVG/1.1/DTD/svg11.dtd">
<svg width="100%" height="100%" viewBox="0 0 350 350" version="1.1" xmlns="http://www.w3.org/2000/svg" xmlns:xlink="http://www.w3.org/1999/xlink" xml:space="preserve" xmlns:serif="http://www.serif.com/" style="fill-rule:evenodd;clip-rule:evenodd;stroke-linejoin:round;stroke-miterlimit:2;">
    <g transform="matrix(1,0,0,1,-2258.79,-321.51)">
        <g id="Icon2" transform="matrix(0.644205,0,0,0.833868,2282.13,989.304)">
            <rect x="-36.232" y="-800.839" width="543.305" height="419.731" style="fill:none;"/>
            <g transform="matrix(1,0,0,1,18.5011,-9.0792)">
                <g transform="matrix(1.5151,0,0,1.31209,-872.906,-841.205)">
                    <path d="M727.53,274.64L807.554,220.786L807.554,290.637C746.799,274.764 688.944,274.054 634.056,290.637L634.056,222.02L718.028,274.606C721.375,276.338 724.515,276.087 727.53,274.64Z" style="fill:white;"/>
                </g>
                <g transform="matrix(1.21089,0.920039,-1.19091,0.93547,-379.689,-1409.14)">
                    <path d="M608.78,274.539C608.832,274.067 609.22,273.257 609.593,272.699C619.482,257.939 642.793,225.208 647.602,220.501C647.806,221.13 643.986,232.358 629.651,255.217C642.889,236.953 676.461,187.989 677.987,186.488C680.797,183.725 680.848,178.922 678.763,176.802C676.677,174.682 670.674,172.645 665.365,179.746C664.275,181.203 613.214,254.142 600.487,274.137L589.745,275.833C587.884,275.833 586.373,274.323 586.373,272.462L624.791,140.841C624.791,138.98 626.302,137.469 628.163,137.469L763.98,94.855C765.841,94.855 767.351,96.366 767.351,98.227L744.59,248.545C744.59,250.406 743.079,251.917 741.218,251.917L623.688,270.474C624.041,271.042 624.505,271.631 625.098,272.245L674.687,322.666C677.158,322.179 679.818,322.903 681.714,324.831C683.557,326.705 684.251,329.282 683.803,331.686C691.908,336.393 700.695,340.927 711.684,344.905L705.667,350.539C701.997,348.862 691.069,342.786 686.514,340.563L699.929,356.162L684.565,368.45L668.978,339.193C666.843,339.302 664.673,338.534 663.058,336.891C661.067,334.866 660.417,332.02 661.1,329.459L609.958,277.459C609.958,277.459 608.611,276.081 608.78,274.539Z" style="fill:white;"/>
                </g>
            </g>
        </g>
    </g>
</svg>
