<?xml version="1.0" encoding="UTF-8" standalone="no"?>
<!DOCTYPE svg PUBLIC "-//W3C//DTD SVG 1.1//EN" "http://www.w3.org/Graphics/SVG/1.1/DTD/svg11.dtd">
<svg width="100%" height="100%" viewBox="0 0 1080 1080" version="1.1" xmlns="http://www.w3.org/2000/svg" xmlns:xlink="http://www.w3.org/1999/xlink" xml:space="preserve" xmlns:serif="http://www.serif.com/" style="fill-rule:evenodd;clip-rule:evenodd;stroke-linejoin:round;stroke-miterlimit:2;">
    <g transform="matrix(1,0,0,1,-1295.61,0)">
        <g id="Artboard2" transform="matrix(1.64795,0,0,1.4182,-684.866,-14.0673)">
            <rect x="1201.78" y="9.919" width="655.36" height="761.53" style="fill:none;"/>
            <g transform="matrix(0.461367,0,0,0.536109,1272.55,129.101)">
                <path d="M618.841,333.105C808.1,333.105 961.755,486.76 961.755,676.02C961.755,689.949 960.923,703.686 959.305,717.183C798.527,564.688 673.302,450.727 673.302,450.727C673.302,450.727 426.995,667.462 294.499,780.412C285.232,749.344 275.926,710.082 275.926,676.02C275.926,486.76 429.581,333.105 618.841,333.105Z" style="fill:white;"/>
            </g>
            <g transform="matrix(0.461367,0,0,0.536109,1274.6,145.633)">
                <path d="M669.863,447.278L729.11,640.728L637.225,856.437L935.246,1020.57C935.246,1020.57 802.643,1140.25 515.869,1137.1C286.072,1134.58 87.885,957.697 87.885,957.697L669.863,447.278Z" style="fill:white;"/>
            </g>
            <g id="Rays-2" serif:id="Rays 2" transform="matrix(0.971729,0,0,0.971729,42.5563,11.9856)">
                <g transform="matrix(-1.08584e-16,-0.551707,0.474789,1.30301e-16,1254.14,832.325)">
                    <path d="M611.432,-72.894C616.959,-21.188 652.118,86.124 651.788,154.296C651.528,208.029 619.455,229.876 609.177,268.69C601.276,222.398 569.878,173.561 570.709,79.162C571.309,11.084 603.787,-29.558 611.432,-72.894Z" style="fill:white;"/>
                </g>
                <g transform="matrix(0.162388,-0.518435,0.446156,0.188695,1172.68,690.308)">
                    <path d="M604.995,-143.931C618.326,-51.34 663.263,25.727 661.5,122.121C660.517,175.847 623.969,228.331 609.177,268.69C601.276,222.398 571.301,147.648 562.075,80.103C551.969,6.102 586.355,-72.487 604.995,-143.931Z" style="fill:white;"/>
                </g>
                <g transform="matrix(0.305189,-0.422632,0.36371,0.35463,1137.94,524.484)">
                    <path d="M605.233,-198.291C613.518,-113.675 667.993,-31.894 665.102,101.079C663.285,184.664 623.48,245.766 609.177,268.69C597.049,183.58 548.683,85.632 543.779,-15.112C540.389,-84.763 594.117,-169.333 605.233,-198.291Z" style="fill:white;"/>
                </g>
                <g transform="matrix(0.41118,-0.275853,0.237395,0.477792,1154.1,354.852)">
                    <path d="M607.7,-226.794C616.585,-135.213 677.421,-41.824 670.497,80.804C665.758,164.718 623.48,245.766 609.177,268.69C601.276,222.398 557.493,118.345 556.304,25.678C555.264,-55.348 594.74,-167.834 607.7,-226.794Z" style="fill:white;"/>
                </g>
                <g transform="matrix(0.467576,-0.0958028,0.0824463,0.543325,1219.22,201.873)">
                    <path d="M601.94,-232.6C619.524,-111.263 663.723,-43.002 662.458,68.262C661.847,121.993 623.48,245.766 609.177,268.69C601.276,222.398 559.974,107.313 555.87,-21.295C553.383,-99.235 590.824,-203.642 601.94,-232.6Z" style="fill:white;"/>
                </g>
                <g transform="matrix(0.467576,0.0958028,-0.0824463,0.543325,1325.43,83.9978)">
                    <path d="M606.404,-210.236C616.111,-104.819 659.415,15.828 656.043,109.443C653.16,189.467 623.48,245.766 609.177,268.69C601.276,222.398 553.412,104.102 551.311,-1.667C549.37,-99.396 595.287,-181.277 606.404,-210.236Z" style="fill:white;"/>
                </g>
                <g transform="matrix(0.41118,0.275853,-0.237395,0.477792,1459.94,15.4448)">
                    <path d="M606.331,-158.232C612.633,-89.179 654.145,35.413 651.112,134.209C648.666,213.899 623.48,245.766 609.177,268.69C601.276,222.398 559.022,151.177 554.706,59.282C550.743,-25.087 595.215,-129.274 606.331,-158.232Z" style="fill:white;"/>
                </g>
                <g transform="matrix(0.305189,0.422632,-0.36371,0.35463,1606.51,4.48211)">
                    <path d="M610.117,-85.697C615.643,-33.99 647.074,69.41 646.744,137.581C646.484,191.315 623.48,245.766 609.177,268.69C601.276,222.398 559.07,163.789 558.675,95.618C558.413,50.38 599,-56.738 610.117,-85.697Z" style="fill:white;"/>
                </g>
                <g transform="matrix(0.162388,0.518435,-0.446156,0.188695,1747.47,52.432)">
                    <path d="M611.26,-16.095C616.787,35.612 652.124,83.48 651.794,151.652C651.534,205.386 623.48,245.766 609.177,268.69C602.829,207.379 564.24,170.049 571.149,86.562C574.88,41.477 600.144,12.863 611.26,-16.095Z" style="fill:white;"/>
                </g>
            </g>
        </g>
    </g>
</svg>
