<?xml version="1.0" encoding="UTF-8" standalone="no"?>
<!DOCTYPE svg PUBLIC "-//W3C//DTD SVG 1.1//EN" "http://www.w3.org/Graphics/SVG/1.1/DTD/svg11.dtd">
<svg width="100%" height="100%" viewBox="0 0 1536 1024" version="1.1" xmlns="http://www.w3.org/2000/svg" xmlns:xlink="http://www.w3.org/1999/xlink" xml:space="preserve" xmlns:serif="http://www.serif.com/" style="fill-rule:evenodd;clip-rule:evenodd;stroke-linejoin:round;stroke-miterlimit:2;">
    <g transform="matrix(1,0,0,1.35596,0,2.92387)">
        <rect x="-8.7" y="-8.214" width="1572.04" height="768.673" style="fill:white;"/>
    </g>
    <g transform="matrix(1.35375,0,0,1.35375,118.58,99.8624)">
        <g transform="matrix(1.20109,0,0,1.20109,-1555.32,-607.577)">
            <g transform="matrix(0.140846,0,0,0.140846,1417.84,565.463)">
                <path d="M618.841,333.105C755.629,333.105 873.819,413.37 928.839,529.332C932.159,536.329 657.567,412.046 657.567,412.046C657.567,412.046 294.207,787.905 292.871,784.331C280.875,752.23 275.926,706.67 275.926,676.02C275.926,486.76 429.581,333.105 618.841,333.105Z" style="fill:rgb(255,200,87);"/>
            </g>
            <g transform="matrix(-0.0226231,-0.139017,0.139017,-0.0226231,1429.24,760.441)">
                <path d="M611.432,-72.894C616.959,-21.188 652.118,86.124 651.788,154.296C651.528,208.029 619.455,229.876 609.177,268.69C601.276,222.398 569.878,173.561 570.709,79.162C571.309,11.084 603.787,-29.558 611.432,-72.894Z" style="fill:rgb(255,200,87);"/>
            </g>
            <g transform="matrix(0.0262878,-0.138371,0.138371,0.0262878,1399.56,728.537)">
                <path d="M604.995,-143.931C618.326,-51.34 663.263,25.727 661.5,122.121C660.517,175.847 623.969,228.331 609.177,268.69C601.276,222.398 571.301,147.648 562.075,80.103C551.969,6.102 586.355,-72.487 604.995,-143.931Z" style="fill:rgb(255,200,87);"/>
            </g>
            <g transform="matrix(0.072028,-0.121035,0.121035,0.072028,1382.59,688.409)">
                <path d="M605.233,-198.291C613.518,-113.675 667.993,-31.894 665.102,101.079C663.285,184.664 623.48,245.766 609.177,268.69C597.049,183.58 548.683,85.632 543.779,-15.112C540.389,-84.763 594.117,-169.333 605.233,-198.291Z" style="fill:rgb(255,200,87);"/>
            </g>
            <g transform="matrix(0.10908,-0.0891005,0.0891005,0.10908,1380.37,644.896)">
                <path d="M607.7,-226.794C616.585,-135.213 677.421,-41.824 670.497,80.804C665.758,164.718 623.48,245.766 609.177,268.69C601.276,222.398 557.493,118.345 556.304,25.678C555.264,-55.348 594.74,-167.834 607.7,-226.794Z" style="fill:rgb(255,200,87);"/>
            </g>
            <g transform="matrix(0.132976,-0.0464194,0.0464194,0.132976,1393.16,603.246)">
                <path d="M601.94,-232.6C619.524,-111.263 663.723,-43.002 662.458,68.262C661.847,121.993 623.48,245.766 609.177,268.69C601.276,222.398 559.974,107.313 555.87,-21.295C553.383,-99.235 590.824,-203.642 601.94,-232.6Z" style="fill:rgb(255,200,87);"/>
            </g>
            <g transform="matrix(0.140833,0.00186064,-0.00186064,0.140833,1419.43,568.483)">
                <path d="M606.404,-210.236C616.111,-104.819 659.415,15.828 656.043,109.443C653.16,189.467 623.48,245.766 609.177,268.69C601.276,222.398 553.412,104.102 551.311,-1.667C549.37,-99.396 595.287,-181.277 606.404,-210.236Z" style="fill:rgb(255,200,87);"/>
            </g>
            <g transform="matrix(0.131704,0.0499162,-0.0499162,0.131704,1456,544.801)">
                <path d="M606.331,-158.232C612.633,-89.179 654.145,35.413 651.112,134.209C648.666,213.899 623.48,245.766 609.177,268.69C601.276,222.398 559.022,151.177 554.706,59.282C550.743,-25.087 595.215,-129.274 606.331,-158.232Z" style="fill:rgb(255,200,87);"/>
            </g>
            <g transform="matrix(0.106689,0.0919512,-0.0919512,0.106689,1498.46,535.055)">
                <path d="M610.117,-85.697C615.643,-33.99 647.074,69.41 646.744,137.581C646.484,191.315 623.48,245.766 609.177,268.69C601.276,222.398 559.07,163.789 558.675,95.618C558.413,50.38 599,-56.738 610.117,-85.697Z" style="fill:rgb(255,200,87);"/>
            </g>
            <g transform="matrix(0.0688052,0.122895,-0.122895,0.0688052,1541.7,540.42)">
                <path d="M611.26,-16.095C616.787,35.612 652.124,83.48 651.794,151.652C651.534,205.386 623.48,245.766 609.177,268.69C602.829,207.379 564.24,170.049 571.149,86.562C574.88,41.477 600.144,12.863 611.26,-16.095Z" style="fill:rgb(255,200,87);"/>
            </g>
            <g transform="matrix(0.252778,0,0,0.259592,1302.33,26.6213)">
                <path d="M1282.33,2661.95C1275.44,2661.33 1267.85,2660.83 1259.54,2660.47C1251.24,2660.12 1243.37,2659.82 1235.93,2659.6C1228.5,2659.38 1222.49,2659.27 1217.91,2659.27L1093.17,2659.27L1091.94,2639.31L1118.18,2632.75C1118.73,2631.41 1119.17,2627.73 1119.49,2621.7C1119.81,2615.68 1120.07,2608.18 1120.25,2599.21C1120.43,2590.25 1120.52,2580.82 1120.52,2570.92L1120.52,2512.12C1120.52,2501.7 1120.43,2492.04 1120.25,2483.16C1120.07,2474.28 1119.81,2466.88 1119.49,2460.94C1119.17,2455.01 1118.73,2451.46 1118.18,2450.3L1091.94,2443.6L1093.17,2423.64L1212,2423.64L1213.23,2444.41L1179.02,2450.57C1178.75,2451.37 1178.38,2454.57 1177.92,2460.14C1177.46,2465.72 1177.1,2473 1176.82,2481.97C1176.55,2490.93 1176.41,2500.99 1176.41,2512.12L1176.41,2570.92C1176.41,2586.63 1176.55,2599.21 1176.82,2608.66C1177.1,2618.11 1177.46,2624.58 1177.92,2628.06C1182.6,2628.86 1187.46,2629.4 1192.5,2629.67C1197.54,2629.93 1203.64,2630.07 1210.79,2630.07L1226.4,2630.07C1232.34,2630.07 1237.67,2629.78 1242.4,2629.2C1247.12,2628.62 1250.99,2628.06 1254,2627.53L1277.09,2583.89L1302.4,2590.05L1282.33,2661.95Z" style="fill:rgb(8,76,97);fill-rule:nonzero;"/>
            </g>
            <g transform="matrix(0.252778,0,0,0.259592,1302.33,26.6213)">
                <path d="M1319.44,2659.27L1318.21,2639.31L1344.45,2632.75C1345,2631.5 1345.46,2628.07 1345.83,2622.44C1346.19,2616.82 1346.52,2609.5 1346.79,2600.49C1347.07,2591.48 1347.2,2581.62 1347.2,2570.92L1347.2,2512.12C1347.2,2500.98 1347.07,2490.9 1346.79,2481.89C1346.52,2472.88 1346.19,2465.49 1345.83,2459.73C1345.46,2453.98 1345,2450.7 1344.45,2449.89L1318.21,2443.6L1319.44,2423.64L1430.3,2423.64L1431.54,2443.6L1405.29,2449.89C1404.74,2451.06 1404.26,2454.54 1403.85,2460.34C1403.43,2466.15 1403.13,2473.51 1402.95,2482.43C1402.77,2491.36 1402.67,2501.25 1402.67,2512.12L1402.67,2570.92C1402.67,2581.35 1402.77,2591 1402.95,2599.88C1403.13,2608.75 1403.43,2616.09 1403.85,2621.9C1404.26,2627.7 1404.74,2631.32 1405.29,2632.75L1431.54,2639.31L1430.3,2659.27L1319.44,2659.27Z" style="fill:rgb(8,76,97);fill-rule:nonzero;"/>
            </g>
            <g transform="matrix(0.252778,0,0,0.259592,1302.33,26.6213)">
                <path d="M1598.78,2659.27L1597.26,2639.31L1618.82,2635.3C1617.08,2632.36 1615.35,2629.57 1613.61,2626.94C1611.87,2624.31 1609.03,2620.59 1605.09,2615.77L1553.9,2555.46L1537.96,2555.46L1537.96,2536.58L1555.25,2533.11L1640.17,2448.28L1613.92,2443.6L1615.16,2423.64L1708.39,2423.64L1709.63,2444.41L1682.27,2448.56L1591.76,2527.58L1590.64,2510.15L1670.07,2602.64C1676.49,2609.97 1681.62,2615.82 1685.47,2620.19C1689.32,2624.56 1692.39,2627.89 1694.68,2630.16C1696.97,2632.43 1698.7,2634.28 1699.89,2635.71L1721.2,2638.91L1721.2,2659.27L1598.78,2659.27ZM1462.98,2659.27L1461.74,2639.31L1487.99,2632.75C1488.54,2631.06 1488.98,2624.54 1489.3,2613.21C1489.62,2601.87 1489.78,2587.78 1489.78,2570.92L1489.78,2512.12C1489.78,2500.98 1489.64,2490.93 1489.37,2481.96C1489.1,2472.99 1488.77,2465.7 1488.41,2460.07C1488.04,2454.45 1487.58,2451.15 1487.03,2450.17L1460.79,2443.6L1462.02,2423.64L1572.88,2423.64L1574.12,2443.6L1547.87,2450.17C1547.32,2451.33 1546.84,2454.79 1546.42,2460.55C1546.01,2466.31 1545.71,2473.65 1545.53,2482.57C1545.35,2491.49 1545.25,2501.34 1545.25,2512.12L1545.25,2570.92C1545.25,2587.78 1545.46,2601.87 1545.87,2613.21C1546.28,2624.54 1546.67,2631.06 1547.04,2632.75L1568.46,2639.31L1567.22,2659.27L1462.98,2659.27Z" style="fill:rgb(8,76,97);fill-rule:nonzero;"/>
            </g>
            <g transform="matrix(0.252778,0,0,0.259592,1302.33,26.6213)">
                <path d="M1858.97,2662.88C1684.01,2658.06 1689.83,2415.88 1858.97,2420.03C2041.21,2424.51 2016.68,2667.23 1858.97,2662.88ZM1857.85,2639.03C1955.21,2641.3 1948.73,2443.86 1858.27,2441.67C1758.76,2439.27 1763.71,2636.84 1857.85,2639.03Z" style="fill:rgb(8,76,97);fill-rule:nonzero;"/>
            </g>
            <g transform="matrix(0.252778,0,0,0.259592,1302.33,26.6213)">
                <path d="M2216.92,2585.07L2216.92,2523.38C2216.92,2510.37 2216.85,2498.55 2216.71,2487.94C2216.58,2477.32 2216.3,2468.66 2215.89,2461.96C2215.48,2455.26 2214.95,2451.33 2214.3,2450.17L2185.58,2443.6L2186.82,2423.64L2274.53,2423.64L2275.77,2443.6L2249.52,2450.17C2249.15,2451.33 2248.74,2455.23 2248.28,2461.89C2247.82,2468.54 2247.48,2477.18 2247.25,2487.8C2247.02,2498.42 2246.91,2510.28 2246.91,2523.38L2246.91,2599.96C2246.91,2612.38 2246.93,2623.38 2246.97,2632.97C2247.01,2642.57 2247.04,2652.05 2247.04,2661.41L2221.87,2661.41L2056.36,2474.67L2078.13,2474.41L2078.13,2554.57C2078.13,2569.01 2078.25,2581.83 2078.47,2593.03C2078.7,2604.23 2079.05,2613.23 2079.51,2620.02C2079.97,2626.81 2080.51,2631.05 2081.15,2632.75L2109.88,2639.31L2108.64,2659.27L2019.42,2659.27L2018.18,2639.31L2044.43,2632.75C2044.98,2631.05 2045.41,2626.63 2045.73,2619.48C2046.05,2612.34 2046.35,2603.09 2046.62,2591.76C2046.9,2580.42 2047.04,2568.03 2047.04,2554.57L2047.04,2501.12C2047.04,2493.83 2046.88,2486.56 2046.56,2479.29C2046.24,2472.03 2045.87,2465.72 2045.46,2460.36C2045.05,2454.99 2044.7,2451.6 2044.43,2450.17L2018.18,2443.6L2019.42,2423.64L2084.59,2423.64L2233.59,2585.07L2216.92,2585.07Z" style="fill:rgb(8,76,97);fill-rule:nonzero;"/>
            </g>
            <g transform="matrix(0.252778,0,0,0.259592,1302.33,26.6213)">
                <path d="M2288.4,2659.27L2287.17,2639.31L2308.47,2632.75L2392.28,2435.31L2426.54,2416.42L2521.38,2632.75L2542.68,2639.31L2541.45,2659.27L2431.53,2659.27L2430.02,2639.31L2456.41,2632.75L2434.29,2581.01L2429.76,2567.22L2388.41,2472.28L2400.52,2475.53L2366.2,2566.01L2362.22,2578.05L2342.72,2632.75L2369.11,2639.31L2367.87,2659.27L2288.4,2659.27ZM2352.45,2591.06L2352.45,2563.74C2357.86,2564 2364.06,2564.36 2371.06,2564.81C2378.07,2565.26 2387.24,2565.48 2398.59,2565.48C2409.67,2565.48 2418.87,2565.26 2426.19,2564.81C2433.51,2564.36 2439.74,2564 2444.88,2563.74L2444.88,2590.66C2439.77,2590.66 2433.5,2590.53 2426.09,2590.26C2418.67,2589.99 2409.51,2589.86 2398.59,2589.86C2387.49,2589.86 2378.35,2589.99 2371.16,2590.26C2363.98,2590.53 2357.74,2590.8 2352.45,2591.06Z" style="fill:rgb(8,76,97);fill-rule:nonzero;"/>
            </g>
            <g transform="matrix(0.252778,0,0,0.259592,1302.33,26.6213)">
                <path d="M2634.08,2662.88C2622.36,2662.88 2609.58,2661.28 2595.74,2658.06C2581.91,2654.85 2569.99,2650.57 2559.99,2645.21L2558.07,2585.9L2584.49,2584.3L2598.38,2625.53C2604.05,2629.1 2610.62,2631.86 2618.09,2633.82C2625.55,2635.78 2632.71,2636.76 2639.58,2636.76C2651.94,2636.76 2661.39,2634.24 2667.93,2629.21C2674.48,2624.18 2677.75,2617.3 2677.75,2608.56C2677.75,2599.38 2674.89,2591.93 2669.16,2586.23C2663.43,2580.52 2656.06,2575.66 2647.04,2571.65C2638.02,2567.64 2628.42,2563.72 2618.25,2559.89C2608.08,2556.05 2598.49,2551.37 2589.47,2545.84C2580.45,2540.31 2573.07,2533.25 2567.35,2524.64C2561.62,2516.03 2558.76,2504.99 2558.76,2491.51C2558.76,2477.14 2562.97,2464.51 2571.41,2453.63C2579.84,2442.74 2591.66,2434.26 2606.88,2428.2C2622.1,2422.13 2639.74,2419.09 2659.82,2419.09C2666.13,2419.09 2672.96,2419.54 2680.29,2420.43C2687.62,2421.33 2694.72,2422.6 2701.6,2424.25C2708.47,2425.9 2714.43,2427.84 2719.47,2430.07L2724.29,2488.59L2698.14,2490.19L2685.08,2450.96C2676.47,2446.69 2666.68,2444.55 2655.69,2444.55C2644.44,2444.55 2635.16,2447.29 2627.83,2452.77C2620.51,2458.25 2616.84,2465.98 2616.84,2475.97C2616.84,2484.8 2619.73,2492.06 2625.5,2497.77C2631.27,2503.47 2638.74,2508.42 2647.89,2512.61C2657.05,2516.8 2666.79,2520.9 2677.09,2524.91C2687.4,2528.92 2697.13,2533.65 2706.29,2539.09C2715.45,2544.53 2722.92,2551.42 2728.69,2559.76C2734.46,2568.1 2737.35,2578.65 2737.35,2591.41C2737.35,2605.15 2733.04,2617.42 2724.42,2628.22C2715.81,2639.01 2703.75,2647.49 2688.26,2653.65C2672.77,2659.8 2654.71,2662.88 2634.08,2662.88Z" style="fill:rgb(8,76,97);fill-rule:nonzero;"/>
            </g>
            <g transform="matrix(0.185248,0,0,0.185248,1395.62,315.385)">
                <rect x="2020.58" y="1858.99" width="20.093" height="292.622" style="fill:rgb(8,76,97);"/>
            </g>
            <g transform="matrix(1.13431e-17,-0.185248,0.185248,1.13431e-17,1400.77,1062.53)">
                <rect x="2020.58" y="1858.99" width="20.093" height="292.622" style="fill:rgb(8,76,97);"/>
            </g>
            <g transform="matrix(0.185248,0,0,0.0952789,1499.03,497.222)">
                <path d="M1098.07,2417.97L1137.97,2417.97L1159.42,2561.85L1152.74,2561.85L1199.85,2417.97L1243.26,2417.97L1241.68,2437.45L1229.55,2443.6C1229.43,2446.1 1229.23,2448.84 1228.94,2451.8C1228.64,2454.76 1228.23,2459.09 1227.71,2464.79C1227.18,2470.48 1226.39,2478.8 1225.33,2489.74L1220.59,2542.37C1219.42,2554.9 1218.6,2565.32 1218.13,2573.64C1217.66,2581.96 1217.25,2588.28 1216.9,2592.61L1227.62,2599.1L1224.98,2618.58L1171.37,2618.58L1172.95,2599.1L1185.08,2592.61C1185.43,2589.19 1185.99,2584.35 1186.75,2578.08C1187.51,2571.82 1188.3,2564.93 1189.12,2557.41C1189.94,2549.89 1190.7,2542.6 1191.41,2535.53L1202.48,2427.88L1212.85,2427.88L1150.28,2619.61L1136.21,2619.61L1107.91,2427.88L1123.2,2427.88L1110.9,2542.71C1110.2,2549.09 1109.55,2555.53 1108.97,2562.02C1108.38,2568.51 1107.85,2574.38 1107.38,2579.62C1106.92,2584.86 1106.56,2589.19 1106.33,2592.61L1118.11,2599.1L1115.47,2618.58L1074.16,2618.58L1075.74,2599.1L1088.93,2592.61C1089.51,2589.42 1090.33,2583.44 1091.39,2574.66C1092.44,2565.89 1093.44,2557.41 1094.38,2549.2L1101.76,2485.64C1103.05,2474.24 1104.07,2465.07 1104.84,2458.12C1105.6,2451.17 1106.04,2446.45 1106.15,2443.94L1095.43,2437.45L1098.07,2417.97Z" style="fill:rgb(255,200,87);fill-rule:nonzero;"/>
            </g>
            <g transform="matrix(0.185248,0,0,0.0952789,1499.03,497.222)">
                <path d="M1270.9,2621.32C1265.16,2621.32 1260.47,2617.39 1256.84,2609.53C1253.2,2601.66 1251.39,2591.7 1251.39,2579.62C1251.39,2563.44 1253.03,2548.29 1256.31,2534.17C1259.59,2520.04 1263.93,2507.68 1269.32,2497.08C1274.71,2486.49 1280.6,2478.17 1286.98,2472.14C1293.37,2466.1 1299.67,2463.08 1305.88,2463.08C1309.87,2463.08 1313.29,2465.3 1316.16,2469.74C1319.04,2474.19 1321.88,2480.39 1324.69,2488.37L1316.78,2498.96C1315.02,2496.23 1313.09,2494.12 1310.98,2492.64C1308.87,2491.16 1306.7,2490.42 1304.47,2490.42C1301.19,2490.42 1298.18,2492.24 1295.42,2495.89C1292.67,2499.53 1290.27,2504.72 1288.21,2511.44C1286.16,2518.16 1284.61,2526.14 1283.56,2535.36C1282.5,2544.59 1281.97,2554.79 1281.97,2565.95C1281.97,2570.28 1282.27,2573.7 1282.85,2576.2C1283.44,2578.71 1284.32,2579.96 1285.49,2579.96C1286.55,2579.96 1288.36,2576.94 1290.94,2570.91C1293.52,2564.87 1296.39,2556.89 1299.55,2546.98C1302.72,2537.07 1305.79,2526.19 1308.78,2514.34C1311.77,2502.5 1314.14,2490.65 1315.9,2478.8L1319.59,2477.09L1325.39,2466.16L1345.96,2466.16C1343.85,2478.23 1341.83,2490.36 1339.89,2502.55C1337.96,2514.74 1336.29,2526.3 1334.88,2537.24C1333.48,2548.18 1332.37,2557.69 1331.55,2565.78C1330.72,2573.87 1330.31,2579.85 1330.31,2583.72C1332.31,2580.99 1334.44,2577.34 1336.73,2572.79C1339.02,2568.23 1341.33,2563.1 1343.67,2557.41L1350,2571.08C1347.07,2579.51 1343.5,2587.6 1339.28,2595.34C1335.06,2603.09 1330.64,2609.36 1326.01,2614.14C1321.38,2618.92 1316.9,2621.32 1312.56,2621.32C1309.28,2621.32 1306.7,2619.49 1304.83,2615.85C1302.95,2612.2 1302.01,2607.19 1302.01,2600.81C1302.01,2596.94 1302.42,2591.41 1303.24,2584.24C1304.06,2577.06 1305.3,2568 1306.93,2557.06C1308.58,2546.13 1310.63,2533.26 1313.09,2518.45L1314.14,2518.45C1310.63,2539.86 1306.61,2558.26 1302.1,2573.64C1297.59,2589.02 1292.73,2600.81 1287.51,2609.01C1282.3,2617.22 1276.76,2621.32 1270.9,2621.32Z" style="fill:rgb(255,200,87);fill-rule:nonzero;"/>
            </g>
            <g transform="matrix(0.185248,0,0,0.0952789,1499.03,497.222)">
                <path d="M1386.43,2621.32C1380.8,2621.32 1376,2619.84 1372.01,2616.87C1368.03,2613.91 1364.98,2610.04 1362.87,2605.25C1360.76,2600.47 1359.71,2595.34 1359.71,2589.87C1359.71,2584.86 1360.32,2579.96 1361.56,2575.18C1362.79,2570.39 1364.34,2566.18 1366.21,2562.53C1370.55,2572.79 1375.12,2580.93 1379.92,2586.97C1384.73,2593.01 1388.6,2596.03 1391.53,2596.03C1393.17,2596.03 1394.63,2595.17 1395.92,2593.46C1397.21,2591.75 1397.85,2588.85 1397.85,2584.75C1397.85,2581.1 1397,2577.57 1395.31,2574.15C1393.61,2570.74 1389.77,2566.29 1383.79,2560.82C1380.28,2557.41 1377.32,2553.88 1374.91,2550.23C1372.51,2546.58 1370.73,2542.54 1369.55,2538.1C1368.38,2533.65 1367.8,2528.7 1367.8,2523.23C1367.8,2511.61 1369.46,2501.3 1372.81,2492.3C1376.14,2483.3 1380.66,2476.24 1386.34,2471.11C1392.02,2465.98 1398.26,2463.42 1405.06,2463.42C1409.87,2463.42 1414.14,2464.5 1417.89,2466.67C1421.64,2468.83 1424.6,2472.19 1426.77,2476.75C1428.94,2481.31 1430.02,2487.23 1430.02,2494.52C1430.02,2499.99 1429.49,2504.83 1428.44,2509.05C1427.38,2513.26 1426.1,2516.85 1424.57,2519.81C1419.88,2507.74 1415.84,2499.31 1412.44,2494.52C1409.05,2489.74 1405.76,2487.34 1402.6,2487.34C1400.02,2487.34 1398.06,2488.6 1396.71,2491.1C1395.36,2493.61 1394.69,2496.46 1394.69,2499.65C1394.69,2502.15 1395.04,2504.49 1395.74,2506.65C1396.45,2508.82 1397.88,2511.33 1400.05,2514.17C1402.22,2517.02 1405.59,2520.72 1410.16,2525.28C1413.67,2528.7 1416.55,2532.23 1418.77,2535.88C1421,2539.52 1422.64,2543.28 1423.69,2547.15C1424.75,2551.03 1425.28,2555.36 1425.28,2560.14C1425.28,2571.99 1423.55,2582.53 1420.09,2591.75C1416.63,2600.98 1411.98,2608.22 1406.12,2613.46C1400.26,2618.7 1393.69,2621.32 1386.43,2621.32Z" style="fill:rgb(255,200,87);fill-rule:nonzero;"/>
            </g>
            <g transform="matrix(0.185248,0,0,0.0952789,1499.03,497.222)">
                <path d="M1506.53,2571.08C1500.9,2586.34 1494.63,2598.53 1487.72,2607.65C1480.8,2616.76 1473.25,2621.32 1465.04,2621.32C1459.65,2621.32 1455.58,2618.98 1452.83,2614.31C1450.07,2609.64 1448.69,2602.75 1448.69,2593.63C1448.69,2591.13 1448.84,2588.05 1449.13,2584.41C1449.43,2580.76 1449.81,2577.12 1450.28,2573.47L1461.17,2491.45L1448.87,2491.45L1450.28,2479.14L1491.06,2427.53L1497.38,2427.53L1490.35,2481.88L1480.16,2561.17C1479.69,2565.49 1479.34,2568.57 1479.1,2570.39C1478.87,2572.22 1478.75,2573.7 1478.75,2574.84C1478.75,2578.94 1479.92,2580.99 1482.27,2580.99C1484.61,2580.99 1487.16,2579.11 1489.91,2575.35C1492.67,2571.59 1496.15,2564.13 1500.37,2552.96L1506.53,2571.08ZM1481.57,2491.45L1484.03,2466.84L1511.98,2466.84L1509.34,2491.45L1481.57,2491.45Z" style="fill:rgb(255,200,87);fill-rule:nonzero;"/>
            </g>
            <g transform="matrix(0.185248,0,0,0.0952789,1499.03,497.222)">
                <path d="M1553.67,2621.32C1543.48,2621.32 1535.6,2616.3 1530.03,2606.28C1524.47,2596.25 1521.68,2582.81 1521.68,2565.95C1521.68,2551.6 1523.06,2538.21 1525.81,2525.79C1528.57,2513.38 1532.29,2502.5 1536.98,2493.15C1541.66,2483.81 1547.02,2476.52 1553.06,2471.28C1559.1,2466.04 1565.39,2463.42 1571.96,2463.42C1579.57,2463.42 1585.35,2466.21 1589.27,2471.79C1593.2,2477.38 1595.16,2484.84 1595.16,2494.18C1595.16,2498.05 1594.69,2502.38 1593.75,2507.17C1592.82,2511.95 1590.85,2517.14 1587.86,2522.72C1584.88,2528.3 1580.28,2534.34 1574.07,2540.83C1567.85,2547.32 1559.48,2554.33 1548.93,2561.85L1548.93,2541.34C1554.79,2536.33 1559.1,2531.32 1561.85,2526.3C1564.6,2521.29 1566.39,2516.17 1567.21,2510.93C1568.03,2505.69 1568.44,2500.56 1568.44,2495.55C1568.44,2491.9 1568.06,2489.22 1567.3,2487.51C1566.54,2485.81 1565.63,2484.95 1564.57,2484.95C1562.82,2484.95 1560.91,2487.8 1558.86,2493.5C1556.81,2499.19 1555.08,2507.28 1553.67,2517.76C1552.27,2528.24 1551.57,2540.66 1551.57,2555.01C1551.57,2564.81 1552.56,2571.82 1554.55,2576.03C1556.55,2580.25 1559.18,2582.36 1562.46,2582.36C1565.51,2582.36 1569.26,2580.7 1573.71,2577.4C1578.17,2574.1 1582.44,2568.12 1586.55,2559.46L1592.7,2577.57C1586.6,2593.52 1579.95,2604.8 1572.75,2611.41C1565.54,2618.01 1559.18,2621.32 1553.67,2621.32Z" style="fill:rgb(255,200,87);fill-rule:nonzero;"/>
            </g>
            <g transform="matrix(0.185248,0,0,0.0952789,1499.03,497.222)">
                <path d="M1670.78,2509.56C1668.67,2509.56 1666.62,2510.98 1664.63,2513.83C1662.64,2516.68 1660.68,2521.01 1658.74,2526.82C1656.81,2532.63 1654.79,2539.98 1652.68,2548.86C1650.1,2560.03 1647.7,2571.76 1645.47,2584.06C1643.25,2596.37 1641.43,2607.87 1640.02,2618.58L1610.14,2618.58C1611.55,2610.84 1613.13,2601.38 1614.89,2590.22C1616.64,2579.05 1618.37,2567.6 1620.07,2555.87C1621.77,2544.13 1623.15,2533.31 1624.2,2523.4C1625.26,2513.49 1625.78,2506.03 1625.78,2501.01C1623.67,2503.75 1621.51,2507.39 1619.28,2511.95C1617.05,2516.51 1614.77,2522.09 1612.42,2528.7L1605.92,2513.66C1608.85,2505.23 1612.42,2497.2 1616.64,2489.57C1620.86,2481.93 1625.32,2475.67 1630,2470.77C1634.69,2465.87 1639.14,2463.42 1643.36,2463.42C1646.29,2463.42 1648.49,2465.01 1649.95,2468.2C1651.42,2471.39 1652.15,2475.95 1652.15,2481.88C1652.15,2485.29 1651.71,2491.9 1650.83,2501.7C1649.95,2511.5 1648.58,2523.12 1646.7,2536.56C1644.83,2550 1642.31,2564.13 1639.14,2578.94L1638.44,2578.94C1640.67,2567.32 1643.1,2554.9 1645.74,2541.68C1648.37,2528.47 1651.27,2515.88 1654.44,2503.92C1657.6,2491.96 1661.15,2482.22 1665.07,2474.7C1669,2467.18 1673.36,2463.42 1678.17,2463.42C1681.68,2463.42 1684.35,2465.36 1686.16,2469.23C1687.98,2473.1 1688.89,2478.57 1688.89,2485.64C1688.89,2491.1 1688.22,2497.08 1686.87,2503.58C1685.52,2510.07 1683.62,2515.6 1681.15,2520.15C1679.63,2516.96 1677.9,2514.4 1675.97,2512.46C1674.04,2510.53 1672.31,2509.56 1670.78,2509.56Z" style="fill:rgb(255,200,87);fill-rule:nonzero;"/>
            </g>
            <g transform="matrix(0.185248,0,0,0.0952789,1499.03,497.222)">
                <path d="M1738.72,2697.53C1733.09,2697.53 1728.84,2695.31 1725.97,2690.87C1723.1,2686.42 1721.66,2680.67 1721.66,2673.61C1721.66,2668.37 1722.48,2663.07 1724.12,2657.71C1725.77,2652.36 1727.99,2647.52 1730.8,2643.19C1732.68,2647.06 1735.32,2650.42 1738.72,2653.27C1742.11,2656.12 1745.98,2657.54 1750.32,2657.54C1754.42,2657.54 1758.9,2656.12 1763.76,2653.27C1768.63,2650.42 1773.23,2644.33 1777.56,2634.99L1783.36,2623.71C1789.11,2611.41 1793.38,2599.33 1796.19,2587.48C1799.01,2575.63 1800.91,2563.1 1801.91,2549.89C1802.9,2536.67 1803.4,2521.98 1803.4,2505.8C1803.4,2498.28 1803.11,2491.79 1802.52,2486.32C1801.94,2480.85 1801.23,2475.84 1800.41,2471.28C1802.05,2469.23 1804.13,2467.41 1806.65,2465.81C1809.17,2464.22 1811.78,2463.42 1814.48,2463.42C1820.22,2463.42 1824.41,2466.16 1827.05,2471.62C1829.68,2477.09 1831,2484.95 1831,2495.2C1831,2505.46 1829.86,2516.79 1827.57,2529.21C1825.29,2541.63 1822.12,2554.5 1818.08,2567.83C1814.04,2581.16 1809.44,2594.26 1804.28,2607.13C1799.12,2620.01 1793.68,2632.14 1787.93,2643.53C1785.12,2649 1781.81,2654.87 1778,2661.13C1774.19,2667.4 1770.12,2673.32 1765.79,2678.9C1761.45,2684.49 1756.97,2688.99 1752.34,2692.4C1747.71,2695.82 1743.17,2697.53 1738.72,2697.53ZM1762.8,2668.48C1762.8,2650.48 1762.65,2633.79 1762.36,2618.41C1762.06,2603.03 1761.68,2589.02 1761.22,2576.37C1760.75,2563.73 1760.25,2552.57 1759.72,2542.88C1759.19,2533.2 1758.67,2525.05 1758.14,2518.45C1757.61,2511.84 1757.17,2506.83 1756.82,2503.41C1753.07,2509.56 1749.44,2518.22 1745.92,2529.38L1739.24,2515.03C1742.29,2505.69 1745.75,2497.14 1749.61,2489.39C1753.48,2481.65 1757.41,2475.38 1761.39,2470.6C1765.38,2465.81 1769.12,2463.42 1772.64,2463.42C1775.57,2463.42 1777.94,2464.79 1779.76,2467.52C1781.58,2470.26 1782.89,2474.59 1783.72,2480.51C1784.18,2484.15 1784.68,2490.25 1785.21,2498.79C1785.74,2507.34 1786.23,2517.36 1786.7,2528.87C1787.17,2540.38 1787.61,2552.34 1788.02,2564.75C1788.43,2577.17 1788.75,2589.19 1788.99,2600.81C1789.22,2612.43 1789.34,2622.57 1789.34,2631.23L1762.8,2668.48Z" style="fill:rgb(255,200,87);fill-rule:nonzero;"/>
            </g>
            <g transform="matrix(0.185248,0,0,0.0952789,1499.03,497.222)">
                <path d="M1877.44,2621.32C1870.53,2621.32 1864.76,2619.04 1860.13,2614.48C1855.5,2609.92 1852.02,2603.49 1849.67,2595.17C1847.33,2586.86 1846.16,2577.12 1846.16,2565.95C1846.16,2552.96 1847.39,2540.38 1849.85,2528.18C1852.31,2516 1855.74,2505 1860.13,2495.2C1864.53,2485.41 1869.71,2477.66 1875.69,2471.97C1881.66,2466.27 1888.11,2463.42 1895.02,2463.42C1901.7,2463.42 1907.36,2465.64 1911.99,2470.09C1916.62,2474.53 1920.13,2480.91 1922.53,2489.22C1924.94,2497.54 1926.14,2507.51 1926.14,2519.13C1926.14,2531.89 1924.91,2544.36 1922.44,2556.55C1919.98,2568.74 1916.56,2579.74 1912.16,2589.53C1907.77,2599.33 1902.61,2607.08 1896.69,2612.77C1890.78,2618.47 1884.36,2621.32 1877.44,2621.32ZM1882.89,2595.68C1884.89,2595.68 1886.7,2593.52 1888.34,2589.19C1889.98,2584.86 1891.39,2579.05 1892.56,2571.76C1893.73,2564.47 1894.64,2556.32 1895.29,2547.32C1895.93,2538.32 1896.25,2529.04 1896.25,2519.47C1896.25,2508.99 1895.76,2501.01 1894.76,2495.55C1893.76,2490.08 1892.27,2487.34 1890.28,2487.34C1888.29,2487.34 1886.44,2489.45 1884.74,2493.67C1883.04,2497.88 1881.61,2503.64 1880.43,2510.93C1879.26,2518.22 1878.35,2526.42 1877.71,2535.53C1877.07,2544.65 1876.74,2553.99 1876.74,2563.56C1876.74,2574.04 1877.27,2582.01 1878.32,2587.48C1879.38,2592.95 1880.9,2595.68 1882.89,2595.68Z" style="fill:rgb(255,200,87);fill-rule:nonzero;"/>
            </g>
            <g transform="matrix(0.185248,0,0,0.0952789,1499.03,497.222)">
                <path d="M1978.56,2463.42C1982.31,2463.42 1985.27,2465.19 1987.44,2468.72C1989.6,2472.25 1990.69,2478.34 1990.69,2487C1990.69,2490.65 1990.28,2495.55 1989.46,2501.7C1988.64,2507.85 1987.61,2514.51 1986.38,2521.69C1985.15,2528.87 1983.92,2535.93 1982.69,2542.88C1981.46,2549.83 1980.43,2556.04 1979.61,2561.51C1978.79,2566.98 1978.38,2571.08 1978.38,2573.81C1978.38,2575.86 1978.62,2577.4 1979.09,2578.43C1979.56,2579.45 1980.2,2579.96 1981.02,2579.96C1982.54,2579.96 1984.42,2578.03 1986.64,2574.15C1988.87,2570.28 1991.3,2564.87 1993.94,2557.92C1996.58,2550.97 1999.21,2542.77 2001.85,2533.31C2004.49,2523.86 2007.01,2513.43 2009.41,2502.04C2011.81,2490.65 2013.89,2478.69 2015.65,2466.16L2043.6,2466.16C2042.19,2474.36 2040.64,2484.1 2038.94,2495.38C2037.24,2506.65 2035.57,2518.1 2033.93,2529.72C2032.29,2541.34 2030.94,2551.99 2029.89,2561.68C2028.83,2571.36 2028.31,2578.71 2028.31,2583.72C2030.41,2580.99 2032.61,2577.34 2034.9,2572.79C2037.18,2568.23 2039.5,2563.1 2041.84,2557.41L2048.34,2571.08C2045.41,2579.51 2041.81,2587.6 2037.53,2595.34C2033.26,2603.09 2028.77,2609.36 2024.09,2614.14C2019.4,2618.92 2014.83,2621.32 2010.38,2621.32C2007.21,2621.32 2004.69,2619.55 2002.82,2616.02C2000.94,2612.49 2000,2607.53 2000,2601.15C2000,2597.74 2000.41,2592.15 2001.24,2584.41C2002.06,2576.66 2003.32,2567.15 2005.01,2555.87C2006.71,2544.59 2008.85,2532.12 2011.43,2518.45L2012.31,2518.45C2009.5,2536.9 2006.19,2552.68 2002.38,2565.78C1998.57,2578.88 1994.44,2589.47 1989.99,2597.56C1985.53,2605.65 1981.05,2611.63 1976.54,2615.51C1972.03,2619.38 1967.72,2621.32 1963.62,2621.32C1958.93,2621.32 1955.15,2619.27 1952.28,2615.16C1949.41,2611.06 1947.97,2604.46 1947.97,2595.34C1947.97,2591.47 1948.41,2586.4 1949.29,2580.13C1950.17,2573.87 1951.23,2566.98 1952.45,2559.46C1953.69,2551.94 1954.92,2544.36 1956.15,2536.73C1957.38,2529.1 1958.43,2522.15 1959.31,2515.88C1960.19,2509.62 1960.63,2504.66 1960.63,2501.01C1958.4,2503.75 1956.2,2507.39 1954.04,2511.95C1951.87,2516.51 1949.61,2522.09 1947.27,2528.7L1940.77,2513.66C1943.7,2505.23 1947.3,2497.2 1951.58,2489.57C1955.85,2481.93 1960.34,2475.67 1965.02,2470.77C1969.71,2465.87 1974.22,2463.42 1978.56,2463.42Z" style="fill:rgb(255,200,87);fill-rule:nonzero;"/>
            </g>
            <g transform="matrix(0.185248,0,0,0.0952789,1499.03,497.222)">
                <path d="M2122.74,2509.56C2120.63,2509.56 2118.58,2510.98 2116.59,2513.83C2114.59,2516.68 2112.63,2521.01 2110.7,2526.82C2108.76,2532.63 2106.74,2539.98 2104.63,2548.86C2102.05,2560.03 2099.65,2571.76 2097.43,2584.06C2095.2,2596.37 2093.38,2607.87 2091.98,2618.58L2062.09,2618.58C2063.5,2610.84 2065.08,2601.38 2066.84,2590.22C2068.6,2579.05 2070.33,2567.6 2072.03,2555.87C2073.72,2544.13 2075.1,2533.31 2076.16,2523.4C2077.21,2513.49 2077.74,2506.03 2077.74,2501.01C2075.63,2503.75 2073.46,2507.39 2071.24,2511.95C2069.01,2516.51 2066.72,2522.09 2064.38,2528.7L2057.88,2513.66C2060.8,2505.23 2064.38,2497.2 2068.6,2489.57C2072.82,2481.93 2077.27,2475.67 2081.96,2470.77C2086.64,2465.87 2091.1,2463.42 2095.32,2463.42C2098.25,2463.42 2100.44,2465.01 2101.91,2468.2C2103.37,2471.39 2104.11,2475.95 2104.11,2481.88C2104.11,2485.29 2103.67,2491.9 2102.79,2501.7C2101.91,2511.5 2100.53,2523.12 2098.66,2536.56C2096.78,2550 2094.26,2564.13 2091.1,2578.94L2090.39,2578.94C2092.62,2567.32 2095.05,2554.9 2097.69,2541.68C2100.33,2528.47 2103.23,2515.88 2106.39,2503.92C2109.55,2491.96 2113.1,2482.22 2117.03,2474.7C2120.95,2467.18 2125.32,2463.42 2130.12,2463.42C2133.64,2463.42 2136.3,2465.36 2138.12,2469.23C2139.94,2473.1 2140.84,2478.57 2140.84,2485.64C2140.84,2491.1 2140.17,2497.08 2138.82,2503.58C2137.47,2510.07 2135.57,2515.6 2133.11,2520.15C2131.59,2516.96 2129.86,2514.4 2127.93,2512.46C2125.99,2510.53 2124.26,2509.56 2122.74,2509.56Z" style="fill:rgb(255,200,87);fill-rule:nonzero;"/>
            </g>
            <g transform="matrix(0.185248,0,0,0.0952789,1499.03,497.222)">
                <path d="M2240.77,2491.1C2237.84,2491.1 2235.32,2494.29 2233.21,2500.67C2231.1,2507.05 2229.49,2515.14 2228.37,2524.94C2227.26,2534.74 2226.76,2544.76 2226.88,2555.01C2227,2564.81 2227.99,2571.65 2229.87,2575.52C2231.74,2579.39 2234.26,2581.33 2237.43,2581.33C2240.59,2581.33 2244.2,2579.62 2248.24,2576.2C2252.28,2572.79 2256.29,2567.2 2260.28,2559.46L2266.43,2577.57C2260.34,2593.52 2253.66,2604.8 2246.39,2611.41C2239.13,2618.01 2232.62,2621.32 2226.88,2621.32C2221.26,2621.32 2216.13,2619.04 2211.5,2614.48C2206.87,2609.92 2203.15,2603.49 2200.34,2595.17C2197.53,2586.86 2196.12,2577.12 2196.12,2565.95C2196.12,2553.19 2197.41,2540.72 2199.99,2528.53C2202.56,2516.34 2206.14,2505.34 2210.71,2495.55C2215.28,2485.75 2220.67,2477.95 2226.88,2472.14C2233.09,2466.33 2239.83,2463.42 2247.1,2463.42C2253.66,2463.42 2258.9,2466.21 2262.83,2471.79C2266.75,2477.38 2268.72,2485.29 2268.72,2495.55C2268.72,2500.56 2268.22,2505.4 2267.22,2510.07C2266.23,2514.74 2264.97,2519.01 2263.44,2522.89C2260.16,2513.09 2256.29,2505.34 2251.84,2499.65C2247.39,2493.95 2243.7,2491.1 2240.77,2491.1Z" style="fill:rgb(255,200,87);fill-rule:nonzero;"/>
            </g>
            <g transform="matrix(0.185248,0,0,0.0952789,1499.03,497.222)">
                <path d="M2342.93,2509.56C2340.83,2509.56 2338.78,2510.98 2336.78,2513.83C2334.79,2516.68 2332.83,2521.01 2330.89,2526.82C2328.96,2532.63 2326.94,2539.98 2324.83,2548.86C2322.25,2560.03 2319.85,2571.76 2317.62,2584.06C2315.4,2596.37 2313.58,2607.87 2312.17,2618.58L2282.29,2618.58C2283.7,2610.84 2285.28,2601.38 2287.04,2590.22C2288.8,2579.05 2290.52,2567.6 2292.22,2555.87C2293.92,2544.13 2295.3,2533.31 2296.35,2523.4C2297.41,2513.49 2297.93,2506.03 2297.93,2501.01C2295.83,2503.75 2293.66,2507.39 2291.43,2511.95C2289.2,2516.51 2286.92,2522.09 2284.58,2528.7L2278.07,2513.66C2281,2505.23 2284.58,2497.2 2288.8,2489.57C2293.01,2481.93 2297.47,2475.67 2302.15,2470.77C2306.84,2465.87 2311.3,2463.42 2315.51,2463.42C2318.44,2463.42 2320.64,2465.01 2322.11,2468.2C2323.57,2471.39 2324.3,2475.95 2324.3,2481.88C2324.3,2485.29 2323.86,2491.9 2322.98,2501.7C2322.11,2511.5 2320.73,2523.12 2318.85,2536.56C2316.98,2550 2314.46,2564.13 2311.3,2578.94L2310.59,2578.94C2312.82,2567.32 2315.25,2554.9 2317.89,2541.68C2320.52,2528.47 2323.42,2515.88 2326.59,2503.92C2329.75,2491.96 2333.3,2482.22 2337.22,2474.7C2341.15,2467.18 2345.51,2463.42 2350.32,2463.42C2353.83,2463.42 2356.5,2465.36 2358.32,2469.23C2360.13,2473.1 2361.04,2478.57 2361.04,2485.64C2361.04,2491.1 2360.37,2497.08 2359.02,2503.58C2357.67,2510.07 2355.77,2515.6 2353.31,2520.15C2351.78,2516.96 2350.05,2514.4 2348.12,2512.46C2346.19,2510.53 2344.46,2509.56 2342.93,2509.56Z" style="fill:rgb(255,200,87);fill-rule:nonzero;"/>
            </g>
            <g transform="matrix(0.185248,0,0,0.0952789,1499.03,497.222)">
                <path d="M2386.92,2621.32C2381.18,2621.32 2376.49,2617.39 2372.86,2609.53C2369.22,2601.66 2367.41,2591.7 2367.41,2579.62C2367.41,2563.44 2369.05,2548.29 2372.33,2534.17C2375.61,2520.04 2379.95,2507.68 2385.34,2497.08C2390.73,2486.49 2396.62,2478.17 2403,2472.14C2409.39,2466.1 2415.69,2463.08 2421.9,2463.08C2425.89,2463.08 2429.31,2465.3 2432.18,2469.74C2435.05,2474.19 2437.9,2480.39 2440.71,2488.37L2432.8,2498.96C2431.04,2496.23 2429.11,2494.12 2427,2492.64C2424.89,2491.16 2422.72,2490.42 2420.49,2490.42C2417.21,2490.42 2414.2,2492.24 2411.44,2495.89C2408.69,2499.53 2406.28,2504.72 2404.23,2511.44C2402.18,2518.16 2400.63,2526.14 2399.58,2535.36C2398.52,2544.59 2397.99,2554.79 2397.99,2565.95C2397.99,2570.28 2398.29,2573.7 2398.87,2576.2C2399.46,2578.71 2400.34,2579.96 2401.51,2579.96C2402.56,2579.96 2404.38,2576.94 2406.96,2570.91C2409.54,2564.87 2412.41,2556.89 2415.57,2546.98C2418.74,2537.07 2421.81,2526.19 2424.8,2514.34C2427.79,2502.5 2430.16,2490.65 2431.92,2478.8L2435.61,2477.09L2441.41,2466.16L2461.98,2466.16C2459.87,2478.23 2457.85,2490.36 2455.91,2502.55C2453.98,2514.74 2452.31,2526.3 2450.9,2537.24C2449.5,2548.18 2448.39,2557.69 2447.56,2565.78C2446.74,2573.87 2446.33,2579.85 2446.33,2583.72C2448.33,2580.99 2450.47,2577.34 2452.75,2572.79C2455.03,2568.23 2457.35,2563.1 2459.69,2557.41L2466.02,2571.08C2463.09,2579.51 2459.52,2587.6 2455.3,2595.34C2451.08,2603.09 2446.66,2609.36 2442.03,2614.14C2437.4,2618.92 2432.92,2621.32 2428.58,2621.32C2425.3,2621.32 2422.72,2619.49 2420.85,2615.85C2418.97,2612.2 2418.03,2607.19 2418.03,2600.81C2418.03,2596.94 2418.44,2591.41 2419.26,2584.24C2420.08,2577.06 2421.31,2568 2422.95,2557.06C2424.6,2546.13 2426.65,2533.26 2429.11,2518.45L2430.16,2518.45C2426.65,2539.86 2422.63,2558.26 2418.12,2573.64C2413.61,2589.02 2408.75,2600.81 2403.53,2609.01C2398.32,2617.22 2392.78,2621.32 2386.92,2621.32Z" style="fill:rgb(255,200,87);fill-rule:nonzero;"/>
            </g>
            <g transform="matrix(0.185248,0,0,0.0952789,1499.03,497.222)">
                <path d="M2480.12,2491.45L2482.23,2472.65L2496.65,2465.13L2523.19,2466.84L2541.3,2466.84L2538.48,2491.45L2480.12,2491.45ZM2542.35,2380.03C2545.87,2380.03 2548.53,2381.57 2550.35,2384.64C2552.16,2387.72 2553.07,2392.68 2553.07,2399.51C2553.07,2405.21 2552.25,2411.47 2550.61,2418.31C2548.97,2425.14 2546.92,2430.84 2544.46,2435.4C2542.47,2429.93 2540.56,2426.22 2538.75,2424.29C2536.93,2422.35 2535.03,2421.38 2533.03,2421.38C2531.51,2421.38 2530.13,2422.69 2528.9,2425.31C2527.67,2427.93 2526.76,2432.32 2526.18,2438.47L2523.19,2466.84L2522.31,2483.59L2513.7,2573.47C2512.17,2589.19 2509.68,2604.46 2506.23,2619.27C2502.77,2634.08 2498.7,2647.35 2494.01,2659.08C2489.32,2670.82 2484.34,2680.16 2479.07,2687.11C2473.8,2694.06 2468.58,2697.53 2463.42,2697.53C2460.03,2697.53 2457.42,2695.88 2455.6,2692.58C2453.78,2689.27 2452.88,2684.43 2452.88,2678.05C2452.88,2672.35 2453.73,2666.09 2455.43,2659.25C2457.12,2652.42 2459.2,2646.84 2461.67,2642.51C2463.66,2647.75 2465.39,2651.28 2466.85,2653.1C2468.32,2654.92 2469.81,2655.84 2471.33,2655.84C2472.39,2655.84 2473.3,2655.09 2474.06,2653.61C2474.82,2652.13 2475.52,2649.8 2476.17,2646.61C2476.81,2643.42 2477.43,2639.09 2478.01,2633.62L2496.3,2464.79C2497.23,2455.67 2499.31,2446.22 2502.53,2436.42C2505.76,2426.62 2509.62,2417.45 2514.14,2408.91C2518.65,2400.37 2523.37,2393.41 2528.29,2388.06C2533.21,2382.71 2537.9,2380.03 2542.35,2380.03Z" style="fill:rgb(255,200,87);fill-rule:nonzero;"/>
            </g>
            <g transform="matrix(0.185248,0,0,0.0952789,1499.03,497.222)">
                <path d="M2605.67,2571.08C2600.05,2586.34 2593.78,2598.53 2586.86,2607.65C2579.95,2616.76 2572.39,2621.32 2564.19,2621.32C2558.8,2621.32 2554.72,2618.98 2551.97,2614.31C2549.22,2609.64 2547.84,2602.75 2547.84,2593.63C2547.84,2591.13 2547.99,2588.05 2548.28,2584.41C2548.57,2580.76 2548.95,2577.12 2549.42,2573.47L2560.32,2491.45L2548.01,2491.45L2549.42,2479.14L2590.2,2427.53L2596.53,2427.53L2589.5,2481.88L2579.3,2561.17C2578.84,2565.49 2578.48,2568.57 2578.25,2570.39C2578.01,2572.22 2577.9,2573.7 2577.9,2574.84C2577.9,2578.94 2579.07,2580.99 2581.41,2580.99C2583.76,2580.99 2586.3,2579.11 2589.06,2575.35C2591.81,2571.59 2595.3,2564.13 2599.52,2552.96L2605.67,2571.08ZM2580.71,2491.45L2583.17,2466.84L2611.12,2466.84L2608.48,2491.45L2580.71,2491.45Z" style="fill:rgb(255,200,87);fill-rule:nonzero;"/>
            </g>
            <g transform="matrix(0.185248,0,0,0.0952789,1499.03,497.222)">
                <path d="M2639.99,2528.7L2635.94,2438.47C2635.48,2427.31 2636.33,2417.34 2638.49,2408.57C2640.66,2399.8 2643.8,2392.85 2647.9,2387.72C2652,2382.59 2656.69,2380.03 2661.96,2380.03C2667.35,2380.03 2671.63,2382.99 2674.79,2388.92C2677.96,2394.84 2679.77,2402.47 2680.24,2411.81C2680.71,2421.16 2679.48,2431.07 2676.55,2441.55L2651.76,2532.12L2639.99,2528.7ZM2640.16,2622C2634.66,2622 2629.97,2618.3 2626.1,2610.89C2622.23,2603.49 2620.3,2594.66 2620.3,2584.41C2620.3,2577.12 2621.21,2570.56 2623.02,2564.75C2624.84,2558.94 2627.27,2554.27 2630.32,2550.74C2633.37,2547.21 2636.65,2545.44 2640.16,2545.44C2645.67,2545.44 2650.36,2549.26 2654.23,2556.89C2658.09,2564.53 2660.03,2573.7 2660.03,2584.41C2660.03,2594.89 2658.09,2603.77 2654.23,2611.06C2650.36,2618.35 2645.67,2622 2640.16,2622Z" style="fill:rgb(255,200,87);fill-rule:nonzero;"/>
            </g>
            <g transform="matrix(0.245371,0,0,0.245371,315.924,603.724)">
                <path d="M4477.03,507.771L4869.36,102.338L5138.15,214.928L5122.61,303.224L5095.38,299.408C5114.49,243.082 5031.62,226.783 4950.74,209.704L5000.81,320.21L4912.31,415.019C4988.73,450.634 5050.26,445.874 5094.33,393.828L5117.8,400.554L5096.82,473.202C5023.95,507.755 4852.52,524.184 4724.04,508.247C4724.23,483.468 4724.35,471.248 4724.35,471.248L4912.97,294.933L4861.8,154.733L4517.35,508.448L4477.03,507.771Z" style="fill:rgb(8,76,97);"/>
            </g>
        </g>
        <g transform="matrix(0.963657,0,0,0.963657,-23.9857,327.164)">
            <g transform="matrix(52.2095,0,0,52.2095,893.635,122.046)">
            </g>
            <text x="144.857px" y="122.046px" style="font-family:'CrimsonPro-Regular', 'Crimson Pro';font-size:52.209px;fill:rgb(8,76,97);">Kno<tspan x="228.678px " y="122.046px ">w</tspan>ledg<tspan x="356.194px 378.882px " y="122.046px 122.046px ">e,</tspan> Cr<tspan x="448.835px " y="122.046px ">e</tspan>ativ<tspan x="551.061px 564.725px 581.653px " y="122.046px 122.046px 122.046px ">ity</tspan> &amp; Inspir<tspan x="784.576px " y="122.046px ">a</tspan>tion</text>
        </g>
        <g transform="matrix(0.858549,0,0,0.858549,-13.6055,310.087)">
            <path d="M982.992,100.835C982.044,100.849 981.155,101.402 980.207,101.417C979.493,101.428 694.043,102.378 560.815,102.386C410.849,102.396 158.196,101.414 158.175,101.409C157.911,101.352 157.865,100.892 157.601,100.835C158.512,100.825 159.36,100.262 160.271,100.252C161.001,100.244 411.852,99.273 560.815,99.283C694.043,99.291 979.493,100.241 980.207,100.252C981.155,100.267 982.044,100.82 982.992,100.835Z" style="fill:rgb(8,76,97);"/>
        </g>
        <g transform="matrix(0.858549,0,0,0.858549,-13.6055,383.423)">
            <path d="M982.992,100.835C982.044,100.849 981.155,101.402 980.207,101.417C979.493,101.428 694.043,102.378 560.815,102.386C410.849,102.396 158.196,101.414 158.175,101.409C157.911,101.352 157.865,100.892 157.601,100.835C158.512,100.825 159.36,100.262 160.271,100.252C161.001,100.244 411.852,99.273 560.815,99.283C694.043,99.291 979.493,100.241 980.207,100.252C981.155,100.267 982.044,100.82 982.992,100.835Z" style="fill:rgb(8,76,97);"/>
        </g>
        <g transform="matrix(1.50936,0,0,1.50936,-451.656,-275.011)">
            <g transform="matrix(1.0244,0,0,0.934072,-97.9583,334.868)">
                <path d="M596.308,209.768L596.308,229.485C596.308,234.926 592.28,239.343 587.319,239.343L565.864,239.343C560.903,239.343 556.875,234.926 556.875,229.485L556.875,209.768C556.875,204.327 560.903,199.909 565.864,199.909L587.319,199.909C592.28,199.909 596.308,204.327 596.308,209.768Z" style="fill:rgb(23,126,137);"/>
            </g>
            <g transform="matrix(1.0244,0,0,0.934072,-36.6836,334.868)">
                <path d="M596.308,209.768L596.308,229.485C596.308,234.926 592.28,239.343 587.319,239.343L565.864,239.343C560.903,239.343 556.875,234.926 556.875,229.485L556.875,209.768C556.875,204.327 560.903,199.909 565.864,199.909L587.319,199.909C592.28,199.909 596.308,204.327 596.308,209.768Z" style="fill:rgb(8,76,97);"/>
            </g>
            <g transform="matrix(1.0244,0,0,0.934072,24.5912,334.868)">
                <path d="M596.308,209.768L596.308,229.485C596.308,234.926 592.28,239.343 587.319,239.343L565.864,239.343C560.903,239.343 556.875,234.926 556.875,229.485L556.875,209.768C556.875,204.327 560.903,199.909 565.864,199.909L587.319,199.909C592.28,199.909 596.308,204.327 596.308,209.768Z" style="fill:rgb(219,58,52);"/>
            </g>
            <g transform="matrix(1.0244,0,0,0.934072,85.866,334.868)">
                <path d="M596.308,209.768L596.308,229.485C596.308,234.926 592.28,239.343 587.319,239.343L565.864,239.343C560.903,239.343 556.875,234.926 556.875,229.485L556.875,209.768C556.875,204.327 560.903,199.909 565.864,199.909L587.319,199.909C592.28,199.909 596.308,204.327 596.308,209.768Z" style="fill:rgb(255,200,87);"/>
            </g>
            <g transform="matrix(1.0244,0,0,0.934072,147.141,334.868)">
                <path d="M596.308,209.768L596.308,229.485C596.308,234.926 592.28,239.343 587.319,239.343L565.864,239.343C560.903,239.343 556.875,234.926 556.875,229.485L556.875,209.768C556.875,204.327 560.903,199.909 565.864,199.909L587.319,199.909C592.28,199.909 596.308,204.327 596.308,209.768Z" style="fill:rgb(50,48,49);"/>
            </g>
        </g>
    </g>
</svg>
